<svg xmlns="http://www.w3.org/2000/svg" xmlns:xlink="http://www.w3.org/1999/xlink" width="320" height="320" version="1.1" viewBox="0 0 320 320"><title>Artboard</title><desc>Created with Sketch.</desc><defs><rect id="path-1" width="12" height="12" x="0" y="0" rx="2"/><polygon id="path-3" points="2.5 5.25 0 2.77 .795 1.985 2.5 3.675 6.205 0 7 .79"/></defs><g id="Artboard" fill="none" fill-rule="evenodd" stroke="none" stroke-width="1"><g id="Checkbox" transform="translate(44.000000, 108.000000)"><g id="Group-5"><g id="Group-2-Copy"><rect id="Rectangle-8-Copy-20" width="192" height="104" x="0" y="0" fill="#FFF" opacity="0"/><g id="check--box--unchecked-copy-17" transform="translate(16.000000, 5.000000)"><g id="Icon" fill="#565656" fill-rule="nonzero" transform="translate(2.000000, 2.000000)"><path id="Shape" d="M11,0 L1,0 C0.44771525,0 0,0.44771525 0,1 L0,11 C0,11.5522847 0.44771525,12 1,12 L11,12 C11.5522847,12 12,11.5522847 12,11 L12,1 C12,0.44771525 11.5522847,0 11,0 Z M1,11 L1,1 L11,1 L11,11 L1,11 Z"/></g><g id="Transparent_Rectangle"><rect id="Rectangle-path" width="16" height="16" x="0" y="0"/></g></g><g id="check--box--unchecked-copy-21" transform="translate(16.000000, 31.000000)"><g id="Icon" fill="#565656" fill-rule="nonzero" transform="translate(2.000000, 2.000000)"><path id="Shape" d="M11,0 L1,0 C0.44771525,0 0,0.44771525 0,1 L0,11 C0,11.5522847 0.44771525,12 1,12 L11,12 C11.5522847,12 12,11.5522847 12,11 L12,1 C12,0.44771525 11.5522847,0 11,0 Z M1,11 L1,1 L11,1 L11,11 L1,11 Z"/></g><g id="Transparent_Rectangle"><rect id="Rectangle-path" width="16" height="16" x="0" y="0"/></g></g><g id="check--box--unchecked-copy-24" transform="translate(16.000000, 58.000000)"><g id="Icon" fill="#565656" fill-rule="nonzero" transform="translate(2.000000, 2.000000)"><path id="Shape" d="M11,0 L1,0 C0.44771525,0 0,0.44771525 0,1 L0,11 C0,11.5522847 0.44771525,12 1,12 L11,12 C11.5522847,12 12,11.5522847 12,11 L12,1 C12,0.44771525 11.5522847,0 11,0 Z M1,11 L1,1 L11,1 L11,11 L1,11 Z"/></g><g id="Transparent_Rectangle"><rect id="Rectangle-path" width="16" height="16" x="0" y="0"/></g></g><g id="check--box--unchecked-copy-29" transform="translate(16.000000, 84.000000)"><g id="Icon" fill="#565656" fill-rule="nonzero" transform="translate(2.000000, 2.000000)"><path id="Shape" d="M11,0 L1,0 C0.44771525,0 0,0.44771525 0,1 L0,11 C0,11.5522847 0.44771525,12 1,12 L11,12 C11.5522847,12 12,11.5522847 12,11 L12,1 C12,0.44771525 11.5522847,0 11,0 Z M1,11 L1,1 L11,1 L11,11 L1,11 Z"/></g><g id="Transparent_Rectangle"><rect id="Rectangle-path" width="16" height="16" x="0" y="0"/></g></g></g></g><g id="Group" transform="translate(16.000000, 31.000000)"><rect id="Rectangle-2" width="10" height="10" x="3" y="3" fill="#FFF"/><g id="icon/toggle/check-box/checked/filled/16"><g id="Group"><g id="checkbox--checked--filled" transform="translate(2.000000, 2.000000)"><g id="icon-color-2"><mask id="mask-2" fill="#fff"><use xlink:href="#path-1"/></mask><use id="Mask" fill="#000" fill-rule="nonzero" xlink:href="#path-1"/><g id="color/black" fill="#000" mask="url(#mask-2)"><g transform="translate(-2.000000, -2.000000)"><rect width="16" height="16" x="0" y="0"/></g></g></g><g id="icon-color-1" transform="translate(2.500000, 3.500000)"><mask id="mask-4" fill="#fff"><use xlink:href="#path-3"/></mask><use id="Mask" fill="#FFF" fill-rule="nonzero" xlink:href="#path-3"/><g id="color/white" fill="#FFF" mask="url(#mask-4)"><g transform="translate(-4.500000, -5.500000)"><rect width="16" height="16" x="0" y="0"/></g></g></g></g><rect id="transparent-rectangle" width="16" height="16" x="0" y="0"/></g></g></g><rect id="Rectangle-3-Copy-14" width="123" height="12" x="40" y="7" fill="#CACACA"/><rect id="Rectangle-3-Copy-15" width="173" height="12" x="40" y="33" fill="#CACACA"/><rect id="Rectangle-3-Copy-16" width="123" height="12" x="40" y="59" fill="#CACACA"/><rect id="Rectangle-3-Copy-17" width="173" height="12" x="40" y="85" fill="#CACACA"/></g></g></svg>