<?xml version="1.0" encoding="UTF-8"?>
<svg width="17px" height="17px" viewBox="0 0 17 17" version="1.1" xmlns="http://www.w3.org/2000/svg" xmlns:xlink="http://www.w3.org/1999/xlink">
    <!-- Generator: Sketch 54.1 (76490) - https://sketchapp.com -->
    <title>icon color</title>
    <desc>Created with Sketch.</desc>
    <defs>
        <path d="M1.75,9.25 L0.5,9.25 L0.5,1.75 C0.5,1.05964406 1.05964406,0.5 1.75,0.5 L9.25,0.5 L9.25,1.75 L1.75,1.75 L1.75,9.25 Z M15.5,5.5 L15.5,15.5 L5.5,15.5 L5.5,5.5 L15.5,5.5 L15.5,5.5 Z M15.5,4.25 L5.5,4.25 C4.80964406,4.25 4.25,4.80964406 4.25,5.5 L4.25,15.5 C4.25,16.1903559 4.80964406,16.75 5.5,16.75 L15.5,16.75 C16.1903559,16.75 16.75,16.1903559 16.75,15.5 L16.75,5.5 C16.75,4.80964406 16.1903559,4.25 15.5,4.25 Z" id="path-1"></path>
    </defs>
    <g id="Page-1" stroke="none" stroke-width="1" fill="none" fill-rule="evenodd">
        <g id="Artboard" transform="translate(-419.000000, -131.000000)">
            <g id="icon/file/copy/20" transform="translate(419.000000, 131.000000)">
                <mask id="mask-2" fill="white">
                    <use xlink:href="#path-1"></use>
                </mask>
                <use id="icon-color" fill="#171717" xlink:href="#path-1"></use>
            </g>
        </g>
    </g>
</svg>