<svg xmlns="http://www.w3.org/2000/svg" xmlns:xlink="http://www.w3.org/1999/xlink" width="320" height="320" version="1.1" viewBox="0 0 320 320"><title>Artboard</title><desc>Created with Sketch.</desc><defs><rect id="path-1" width="182" height="160.22" x="0" y="23"/><filter id="filter-2" width="111%" height="112.5%" x="-5.5%" y="-5%" filterUnits="objectBoundingBox"><feOffset dx="0" dy="2" in="SourceAlpha" result="shadowOffsetOuter1"/><feGaussianBlur in="shadowOffsetOuter1" result="shadowBlurOuter1" stdDeviation="3"/><feColorMatrix in="shadowBlurOuter1" type="matrix" values="0 0 0 0 0 0 0 0 0 0 0 0 0 0 0 0 0 0 0.2 0"/></filter><polygon id="path-3" points="3.573 0 7.145 3.573 6.586 4.132 3.573 1.123 .56 4.132 0 3.573"/><polygon id="path-5" points="3.573 0 7.145 3.573 6.586 4.132 3.573 1.123 .56 4.132 0 3.573"/><path id="path-7" d="M6.27,0.57 L5.13,0.57 L5.13,0 L4.56,0 L4.56,0.57 L2.28,0.57 L2.28,0 L1.71,0 L1.71,0.57 L0.57,0.57 C0.255197693,0.57 0,0.825197693 0,1.14 L0,6.84 C0,7.15480231 0.255197693,7.41 0.57,7.41 L6.27,7.41 C6.58480231,7.41 6.84,7.15480231 6.84,6.84 L6.84,1.14 C6.84,0.825197693 6.58480231,0.57 6.27,0.57 Z M6.27,6.84 L0.57,6.84 L0.57,2.85 L6.27,2.85 L6.27,6.84 Z M6.27,2.28 L0.57,2.28 L0.57,1.14 L1.71,1.14 L1.71,1.71 L2.28,1.71 L2.28,1.14 L4.56,1.14 L4.56,1.71 L5.13,1.71 L5.13,1.14 L6.27,1.14 L6.27,2.28 Z"/><path id="path-9" d="M6.27,0.57 L5.13,0.57 L5.13,0 L4.56,0 L4.56,0.57 L2.28,0.57 L2.28,0 L1.71,0 L1.71,0.57 L0.57,0.57 C0.255197693,0.57 0,0.825197693 0,1.14 L0,6.84 C0,7.15480231 0.255197693,7.41 0.57,7.41 L6.27,7.41 C6.58480231,7.41 6.84,7.15480231 6.84,6.84 L6.84,1.14 C6.84,0.825197693 6.58480231,0.57 6.27,0.57 Z M6.27,6.84 L0.57,6.84 L0.57,2.85 L6.27,2.85 L6.27,6.84 Z M6.27,2.28 L0.57,2.28 L0.57,1.14 L1.71,1.14 L1.71,1.71 L2.28,1.71 L2.28,1.14 L4.56,1.14 L4.56,1.71 L5.13,1.71 L5.13,1.14 L6.27,1.14 L6.27,2.28 Z"/></defs><g id="Artboard" fill="none" fill-rule="evenodd" stroke="none" stroke-width="1"><g id="Date_Picker" transform="translate(69.000000, 68.000000)"><g id="Rectangle-Copy-18"><use fill="#000" fill-opacity="1" filter="url(#filter-2)" xlink:href="#path-1"/><use fill="#D8D8D8" fill-rule="evenodd" xlink:href="#path-1"/></g><rect id="Rectangle-25-Copy-2" width="182" height="160.218" x="0" y="22.782" fill="#F3F3F3"/><polygon id="Rectangle-2" fill="#C9DEFF" points="56.875 100.379 79.625 100.379 79.625 123.16 56.875 123.16"/><polygon id="Rectangle-2-Copy-38" fill="#C9DEFF" points="79.625 100.379 102.375 100.379 102.375 123.16 79.625 123.16"/><polygon id="Rectangle-2-Copy-39" fill="#C9DEFF" points="102.375 100.379 125.125 100.379 125.125 123.16 102.375 123.16"/><polygon id="Rectangle-2-Copy-40" fill="#C9DEFF" points="125.125 100.379 147.875 100.379 147.875 123.16 125.125 123.16"/><polygon id="Rectangle-2-Copy-41" fill="#006AFF" points="146.875 100.379 170.625 100.379 170.625 123.16 146.875 123.16"/><g id="icon/navigation/chevron/up/16" transform="translate(159.644670, 39.635417) rotate(90.000000) translate(-159.644670, -39.635417) translate(153.009253, 32.990747)"><g id="chevron--up" fill-rule="evenodd" stroke-width="1" transform="translate(2.778750, 3.969643)"><mask id="mask-4" fill="#fff"><use xlink:href="#path-3"/></mask><use id="Mask" fill="#000" fill-rule="nonzero" xlink:href="#path-3"/><g id="color/black" fill="#000" mask="url(#mask-4)"><g transform="translate(-2.778750, -3.969643)"><rect width="13" height="13" x="0" y="0"/></g></g></g><polygon id="transparent-rectangle" points="0 0 12.703 0 12.703 12.703 0 12.703" transform="translate(6.351429, 6.351429) rotate(-90.000000) translate(-6.351429, -6.351429)"/></g><polygon id="Rectangle-2" fill="#006AFF" points="33.125 100.379 56.875 100.379 56.875 123.16 33.125 123.16"/><text id="8" fill="#171717" font-family="IBMPlexSans, IBM Plex Sans" font-size="7.98" font-weight="normal" letter-spacing=".057" line-spacing="11.4"><tspan x="20.896" y="114.505">8</tspan></text><g id="icon/navigation/chevron/up/16" transform="translate(22.750000, 40.057868) scale(-1, 1) rotate(90.000000) translate(-22.750000, -40.057868) translate(16.114583, 33.413198)"><g id="chevron--up" fill-rule="evenodd" stroke-width="1" transform="translate(2.778750, 3.969643)"><mask id="mask-6" fill="#fff"><use xlink:href="#path-5"/></mask><use id="Mask" fill="#000" fill-rule="nonzero" xlink:href="#path-5"/><g id="color/black" fill="#000" mask="url(#mask-6)"><g transform="translate(-2.778750, -3.969643)"><rect width="13" height="13" x="0" y="0"/></g></g></g><polygon id="transparent-rectangle" points="0 0 12.703 0 12.703 12.703 0 12.703" transform="translate(6.351429, 6.351429) rotate(-90.000000) translate(-6.351429, -6.351429)"/></g><rect id="Rectangle-25-Copy-16" width="91" height="22.782" x="91" y="0" fill="#F3F3F3"/><rect id="Rectangle-25-Copy-17" width="89.86" height="21.642" x=".57" y=".57" fill="#FFF" stroke="#006AFF" stroke-width="1.14"/><g id="icon/image/calendar/16" transform="translate(72.800000, 6.834518)"><g id="calendar" fill-rule="evenodd" stroke-width="1" transform="translate(1.140000, 0.570000)"><mask id="mask-8" fill="#fff"><use xlink:href="#path-7"/></mask><use id="Mask" fill="#000" fill-rule="nonzero" xlink:href="#path-7"/><g id="color/black" fill="#000" mask="url(#mask-8)"><g transform="translate(-1.140000, -0.570000)"><rect width="23" height="23" x="0" y="0"/></g></g></g><rect id="transparent-rectangle" width="9.12" height="9.12" x="0" y="0"/></g><g id="icon/image/calendar/16" transform="translate(163.800000, 6.834518)"><g id="calendar" fill-rule="evenodd" stroke-width="1" transform="translate(1.140000, 0.570000)"><mask id="mask-10" fill="#fff"><use xlink:href="#path-9"/></mask><use id="Mask" fill="#000" fill-rule="nonzero" xlink:href="#path-9"/><g id="color/black" fill="#000" mask="url(#mask-10)"><g transform="translate(-1.140000, -0.570000)"><rect width="23" height="23" x="0" y="0"/></g></g></g><rect id="transparent-rectangle" width="9.12" height="9.12" x="0" y="0"/></g><rect id="Rectangle-4-Copy-3" width="91" height="1" x="91" y="22.212" fill="#D8D8D8"/><rect id="Rectangle-Copy-87" width="48.913" height="8" x="9.1" y="7.265" fill="#D8D8D8"/><rect id="Rectangle-Copy-89" width="48.913" height="8" x="100" y="7" fill="#D8D8D8"/><rect id="Rectangle-Copy-90" width="48.913" height="8" x="67.681" y="35.742" fill="#D8D8D8"/><rect id="Rectangle-Copy-118" width="9" height="9" x="17.631" y="130.995" fill="#D8D8D8"/><rect id="Rectangle-Copy-117" width="9" height="9" x="40.381" y="130.995" fill="#D8D8D8"/><rect id="Rectangle-Copy-116" width="9" height="9" x="63.131" y="130.995" fill="#D8D8D8"/><rect id="Rectangle-Copy-115" width="9" height="9" x="86" y="131" fill="#D8D8D8"/><rect id="Rectangle-Copy-114" width="9" height="9" x="108.631" y="130.995" fill="#D8D8D8"/><rect id="Rectangle-Copy-113" width="9" height="9" x="131.381" y="130.995" fill="#D8D8D8"/><rect id="Rectangle-Copy-112" width="9" height="9" x="154.131" y="130.995" fill="#D8D8D8"/><rect id="Rectangle-Copy-125" width="9" height="9" x="17.631" y="154.346" fill="#D8D8D8"/><rect id="Rectangle-Copy-124" width="9" height="9" x="40.381" y="154.346" fill="#D8D8D8"/><rect id="Rectangle-Copy-123" width="9" height="9" x="63.131" y="154.346" fill="#D8D8D8"/><rect id="Rectangle-Copy-122" width="9" height="9" x="86" y="154" fill="#D8D8D8"/><rect id="Rectangle-Copy-121" width="9" height="9" x="108.631" y="154.346" fill="#D8D8D8"/><rect id="Rectangle-Copy-120" width="9" height="9" x="131.381" y="154.346" fill="#D8D8D8"/><rect id="Rectangle-Copy-119" width="9" height="9" x="154.131" y="154.346" fill="#D8D8D8"/><rect id="Rectangle-Copy-111" width="9" height="9" x="17.631" y="107.644" fill="#D8D8D8"/><rect id="Rectangle-Copy-110" width="9" height="9" x="40.381" y="107.644" fill="#FFF"/><rect id="Rectangle-Copy-109" width="9" height="9" x="63.131" y="107.644" fill="#97C1FF"/><rect id="Rectangle-Copy-108" width="9" height="9" x="85.881" y="107.644" fill="#97C1FF"/><rect id="Rectangle-Copy-107" width="9" height="9" x="108.631" y="107.644" fill="#97C1FF"/><rect id="Rectangle-Copy-106" width="9" height="9" x="131.381" y="107.644" fill="#97C1FF"/><rect id="Rectangle-Copy-105" width="9" height="9" x="154.131" y="107.644" fill="#FFF"/><rect id="Rectangle-Copy-98" width="9" height="9" x="17.631" y="83.723" fill="#D8D8D8"/><rect id="Rectangle-Copy-99" width="9" height="9" x="40.381" y="83.723" fill="#D8D8D8"/><rect id="Rectangle-Copy-100" width="9" height="9" x="63.131" y="83.723" fill="#D8D8D8"/><rect id="Rectangle-Copy-101" width="9" height="9" x="85.881" y="83.723" fill="#D8D8D8"/><rect id="Rectangle-Copy-102" width="9" height="9" x="108.631" y="83.723" fill="#D8D8D8"/><rect id="Rectangle-Copy-103" width="9" height="9" x="131.381" y="83.723" fill="#D8D8D8"/><rect id="Rectangle-Copy-104" width="9" height="9" x="154.131" y="83.723" fill="#D8D8D8"/><rect id="Rectangle-Copy-91" width="9" height="9" x="17.631" y="59.802" fill="#D8D8D8"/><rect id="Rectangle-Copy-92" width="9" height="9" x="40.381" y="59.802" fill="#D8D8D8"/><rect id="Rectangle-Copy-93" width="9" height="9" x="63.131" y="59.802" fill="#D8D8D8"/><rect id="Rectangle-Copy-94" width="9" height="9" x="85.881" y="59.802" fill="#D8D8D8"/><rect id="Rectangle-Copy-95" width="9" height="9" x="108.631" y="59.802" fill="#D8D8D8"/><rect id="Rectangle-Copy-96" width="9" height="9" x="131.381" y="59.802" fill="#D8D8D8"/><rect id="Rectangle-Copy-97" width="9" height="9" x="154.131" y="59.802" fill="#D8D8D8"/></g></g></svg>