<svg xmlns="http://www.w3.org/2000/svg" xmlns:xlink="http://www.w3.org/1999/xlink" width="16" height="18" version="1.1" viewBox="0 0 16 18"><title>icon color</title><desc>Created with Sketch.</desc><defs><path id="path-1" d="M5.5,6.5 L6.75,6.5 L6.75,14 L5.5,14 L5.5,6.5 Z M9.25,6.5 L10.5,6.5 L10.5,14 L9.25,14 L9.25,6.5 Z M0.5,2.75 L0.5,4 L1.75,4 L1.75,16.5 C1.75,17.1903559 2.30964406,17.75 3,17.75 L13,17.75 C13.6903559,17.75 14.25,17.1903559 14.25,16.5 L14.25,4 L15.5,4 L15.5,2.75 L0.5,2.75 Z M3,16.5 L3,4 L13,4 L13,16.5 L3,16.5 Z M5.5,0.25 L10.5,0.25 L10.5,1.5 L5.5,1.5 L5.5,0.25 Z"/></defs><g id="Page-1" fill="none" fill-rule="evenodd" stroke="none" stroke-width="1"><g id="Artboard" transform="translate(-914.000000, -758.000000)"><g id="icon/formatting/delete/20" transform="translate(914.000000, 758.000000)"><mask id="mask-2" fill="#fff"><use xlink:href="#path-1"/></mask><use id="icon-color" fill="#FFF" xlink:href="#path-1"/></g></g></g></svg>