<svg xmlns="http://www.w3.org/2000/svg" xmlns:xlink="http://www.w3.org/1999/xlink" width="320" height="320" version="1.1" viewBox="0 0 320 320"><title>Artboard</title><desc>Created with Sketch.</desc><defs><polygon id="path-1" points="4.707 4 8 .707 7.293 0 4 3.293 .707 0 0 .707 3.293 4 0 7.293 .707 8 4 4.707 7.293 8 8 7.293"/><circle id="path-3" cx="7" cy="7" r="7"/><polygon id="path-5" points="3.436 -.391 4.561 -.391 4.561 8.384 3.436 8.384"/></defs><g id="Artboard" fill="none" fill-rule="evenodd" stroke="none" stroke-width="1"><g id="notification" transform="translate(52.000000, 102.000000)"><rect id="Rectangle-2-Copy-27" width="216" height="116" x="0" y="0" fill="#FFF0F1"/><rect id="Path-Copy-2" width="3" height="116" x="0" y="0" fill="#DA1E28"/><rect id="Rectangle-3-Copy-27" width="88" height="12" x="45" y="17" fill="#E5E5E5" style="mix-blend-mode:multiply"/><rect id="Rectangle-3-Copy-28" width="116" height="12" x="45" y="33" fill="#E5E5E5" style="mix-blend-mode:multiply"/><rect id="Rectangle-3-Copy-29" width="88" height="12" x="45" y="49" fill="#E5E5E5" style="mix-blend-mode:multiply"/><rect id="Rectangle-3-Copy-30" width="116" height="12" x="45" y="79" fill="#E5E5E5" style="mix-blend-mode:multiply"/><g id="icon/navigation/close/16" transform="translate(186.000000, 14.000000)"><g id="Group"><g id="close" transform="translate(4.000000, 4.000000)"><mask id="mask-2" fill="#fff"><use xlink:href="#path-1"/></mask><use id="Mask" fill="#000" fill-rule="nonzero" xlink:href="#path-1"/><g id="color/gray/gray-100" fill="#171717" mask="url(#mask-2)"><g id="gray-100" transform="translate(-4.000000, -4.000000)"><rect width="40" height="40" x="0" y="0"/></g></g></g><rect id="transparent-rectangle" width="16" height="16" x="0" y="0"/></g></g><g id="icon/status/error/filled/20" transform="translate(22.000000, 22.000000) scale(-1, 1) translate(-22.000000, -22.000000) translate(14.000000, 14.000000)"><g id="Group"><g id="error--filled" transform="translate(1.000000, 1.000000)"><g id="icon-2"><mask id="mask-4" fill="#fff"><use xlink:href="#path-3"/></mask><use id="icon-color" fill="#DA1E28" xlink:href="#path-3"/></g><g id="icon-1" transform="translate(3.000000, 3.000000)"><mask id="mask-6" fill="#fff"><use xlink:href="#path-5"/></mask><use id="icon-color" fill="#FFF" transform="translate(3.998708, 3.996464) rotate(-45.000000) translate(-3.998708, -3.996464)" xlink:href="#path-5"/></g></g><rect id="transparent-rectangle" width="16" height="16" x="0" y="0"/></g></g></g></g></svg>