<svg xmlns="http://www.w3.org/2000/svg" xmlns:xlink="http://www.w3.org/1999/xlink" width="2" height="12" version="1.1" viewBox="0 0 2 12"><title>icon color</title><desc>Created with Sketch.</desc><defs><path id="path-1" d="M1,2 C1.55228475,2 2,1.55228475 2,1 C2,0.44771525 1.55228475,0 1,0 C0.44771525,0 0,0.44771525 0,1 C0,1.55228475 0.44771525,2 1,2 Z M1,7 C1.55228475,7 2,6.55228475 2,6 C2,5.44771525 1.55228475,5 1,5 C0.44771525,5 0,5.44771525 0,6 C0,6.55228475 0.44771525,7 1,7 Z M1,12 C1.55228475,12 2,11.5522847 2,11 C2,10.4477153 1.55228475,10 1,10 C0.44771525,10 0,10.4477153 0,11 C0,11.5522847 0.44771525,12 1,12 Z"/></defs><g id="Page-1" fill="none" fill-rule="evenodd" stroke="none" stroke-width="1"><g id="Artboard" transform="translate(-333.000000, -165.000000)"><g id="icon/navigation/overflow-menu/16" transform="translate(333.000000, 165.000000)"><mask id="mask-2" fill="#fff"><use xlink:href="#path-1"/></mask><use id="icon-color" fill="#171717" xlink:href="#path-1"/></g></g></g></svg>