<svg xmlns="http://www.w3.org/2000/svg" xmlns:xlink="http://www.w3.org/1999/xlink" width="320" height="320" version="1.1" viewBox="0 0 320 320"><title>Artboard</title><desc>Created with Sketch.</desc><defs><polygon id="path-1" points="0 32 88.294 32 88.294 0 120 0 120 32 120 160 0 160"/><filter id="filter-2" width="116.7%" height="112.5%" x="-8.3%" y="-5%" filterUnits="objectBoundingBox"><feOffset dx="0" dy="2" in="SourceAlpha" result="shadowOffsetOuter1"/><feGaussianBlur in="shadowOffsetOuter1" result="shadowBlurOuter1" stdDeviation="3"/><feColorMatrix in="shadowBlurOuter1" type="matrix" values="0 0 0 0 0 0 0 0 0 0 0 0 0 0 0 0 0 0 0.3 0"/></filter><path id="path-3" d="M1,2 C1.55228475,2 2,1.55228475 2,1 C2,0.44771525 1.55228475,0 1,0 C0.44771525,0 0,0.44771525 0,1 C0,1.55228475 0.44771525,2 1,2 Z M1,7 C1.55228475,7 2,6.55228475 2,6 C2,5.44771525 1.55228475,5 1,5 C0.44771525,5 0,5.44771525 0,6 C0,6.55228475 0.44771525,7 1,7 Z M1,12 C1.55228475,12 2,11.5522847 2,11 C2,10.4477153 1.55228475,10 1,10 C0.44771525,10 0,10.4477153 0,11 C0,11.5522847 0.44771525,12 1,12 Z"/></defs><g id="Artboard" fill="none" fill-rule="evenodd" stroke="none" stroke-width="1"><g id="Overflow" transform="translate(100.000000, 80.000000)"><g id="Group-47"><g id="Group-46"><rect id="Rectangle-2-Copy-8" width="120" height="32" x="0" y="32" fill="#F3F3F3"/><g id="Rectangle-2-Copy-17"><use fill="#000" fill-opacity="1" filter="url(#filter-2)" xlink:href="#path-1"/><use fill="#F3F3F3" fill-rule="evenodd" xlink:href="#path-1"/></g><rect id="Rectangle-2-Copy-18" width="32" height="32" x="88" y="0" fill="#F3F3F3"/><rect id="Rectangle-2-Copy-19" width="120" height="32" x="0" y="64" fill="#DCDCDC" opacity=".6"/><rect id="Rectangle-3-Copy-33" width="48" height="12" x="16" y="74" fill="#BEBEBE"/><rect id="Rectangle-2-Copy-20" width="120" height="32" x="0" y="96" fill="#F3F3F3"/><rect id="Rectangle-2-Copy-21" width="120" height="32" x="0" y="128" fill="#F3F3F3"/><g id="icon/navigation/overflow-menu/16" transform="translate(96.000000, 8.000000)"><g id="overflow--menu" fill-rule="evenodd" stroke-width="1" transform="translate(7.000000, 2.000000)"><mask id="mask-4" fill="#fff"><use xlink:href="#path-3"/></mask><use id="Mask" fill="#000" fill-rule="nonzero" xlink:href="#path-3"/><g id="color/gray/100" fill="#171717" mask="url(#mask-4)"><g transform="translate(-7.000000, -2.000000)"><rect width="40" height="40" x="0" y="0"/></g></g></g><rect id="transparent-rectangle" width="16" height="16" x="0" y="0"/></g><rect id="Rectangle-2-Copy-22" width="120" height="1" x="0" y="127" fill="#DCDCDC"/><rect id="Rectangle-3-Copy-32" width="72" height="12" x="16" y="43" fill="#D8D8D8"/><rect id="Rectangle-3-Copy-34" width="72" height="12" x="16" y="106" fill="#D8D8D8"/><rect id="Rectangle-3-Copy-35" width="48" height="12" x="16" y="137" fill="#D8D8D8"/></g></g></g></g></svg>