<svg xmlns="http://www.w3.org/2000/svg" xmlns:xlink="http://www.w3.org/1999/xlink" width="14" height="14" version="1.1" viewBox="0 0 14 14"><title>icon color</title><desc>Created with Sketch.</desc><defs><path id="path-1" d="M7,0 C3.13400675,-2.22044605e-16 4.4408921e-16,3.13400675 0,7 C-4.4408921e-16,10.8659932 3.13400675,14 7,14 C10.8659932,14 14,10.8659932 14,7 C14,5.14348457 13.2625021,3.36300718 11.9497475,2.05025253 C10.6369928,0.737497883 8.85651543,2.22044605e-16 7,0 Z M7,13 C3.6862915,13 1,10.3137085 1,7 C1,3.6862915 3.6862915,1 7,1 C10.3137085,1 13,3.6862915 13,7 C13,8.59129894 12.367859,10.1174224 11.2426407,11.2426407 C10.1174224,12.367859 8.59129894,13 7,13 Z M6.5,3 L7.5,3 L7.5,8.5 L6.5,8.5 L6.5,3 Z M7,9.5 C6.58578644,9.5 6.25,9.83578644 6.25,10.25 C6.25,10.6642136 6.58578644,11 7,11 C7.41421356,11 7.75,10.6642136 7.75,10.25 C7.75,9.83578644 7.41421356,9.5 7,9.5 Z"/></defs><g id="Edit-here" fill="none" fill-rule="evenodd" stroke="none" stroke-width="1"><g id="Artboard" transform="translate(-382.000000, -70.000000)"><g id="icon/status/warning/16" transform="translate(382.000000, 70.000000)"><mask id="mask-2" fill="#fff"><use xlink:href="#path-1"/></mask><use id="icon-color" fill="#DA1E28" xlink:href="#path-1"/></g></g></g></svg>