<svg xmlns="http://www.w3.org/2000/svg" xmlns:xlink="http://www.w3.org/1999/xlink" width="16" height="16" version="1.1" viewBox="0 0 16 16"><title>icon color</title><desc>Created with Sketch.</desc><defs><path id="path-1" d="M15.31875,3.80625 L12.19375,0.68125 C12.0758007,0.564258428 11.9161269,0.499039526 11.75,0.5 L1.75,0.5 C1.05964406,0.5 0.5,1.05964406 0.5,1.75 L0.5,14.25 C0.5,14.9403559 1.05964406,15.5 1.75,15.5 L14.25,15.5 C14.9403559,15.5 15.5,14.9403559 15.5,14.25 L15.5,4.25 C15.5009605,4.08387313 15.4357416,3.92419927 15.31875,3.80625 Z M5.5,1.75 L10.5,1.75 L10.5,4.25 L5.5,4.25 L5.5,1.75 Z M10.5,14.25 L5.5,14.25 L5.5,9.25 L10.5,9.25 L10.5,14.25 Z M11.75,14.25 L11.75,9.25 C11.75,8.55964406 11.1903559,8 10.5,8 L5.5,8 C4.80964406,8 4.25,8.55964406 4.25,9.25 L4.25,14.25 L1.75,14.25 L1.75,1.75 L4.25,1.75 L4.25,4.25 C4.25,4.94035594 4.80964406,5.5 5.5,5.5 L10.5,5.5 C11.1903559,5.5 11.75,4.94035594 11.75,4.25 L11.75,2.00625 L14.25,4.50625 L14.25,14.25 L11.75,14.25 Z"/></defs><g id="Page-1" fill="none" fill-rule="evenodd" stroke="none" stroke-width="1"><g id="Artboard" transform="translate(-944.000000, -740.000000)"><g id="icon/formatting/save/20" transform="translate(944.000000, 740.000000)"><mask id="mask-2" fill="#fff"><use xlink:href="#path-1"/></mask><use id="icon-color" fill="#FFF" xlink:href="#path-1"/></g></g></g></svg>