<svg xmlns="http://www.w3.org/2000/svg" xmlns:xlink="http://www.w3.org/1999/xlink" width="320" height="320" version="1.1" viewBox="0 0 320 320"><title>Artboard</title><desc>Created with Sketch.</desc><defs><path id="path-1" d="M14,13.295 L10.225,9.5 C12.0996648,7.2380802 11.8657415,3.90219848 9.69374842,1.92404398 C7.52175532,-0.0541105278 4.17859243,0.0239205462 2.10125649,2.10125649 C0.0239205462,4.17859243 -0.0541105278,7.52175532 1.92404398,9.69374842 C3.90219848,11.8657415 7.2380802,12.0996648 9.5,10.225 L13.295,14 L14,13.295 Z M1.5,6 C1.5,3.51471863 3.51471863,1.5 6,1.5 C8.48528137,1.5 10.5,3.51471863 10.5,6 C10.5,8.48528137 8.48528137,10.5 6,10.5 C3.51471863,10.5 1.5,8.48528137 1.5,6 Z"/><polygon id="path-3" points="4.707 4 8 .707 7.293 0 4 3.293 .707 0 0 .707 3.293 4 0 7.293 .707 8 4 4.707 7.293 8 8 7.293"/></defs><g id="Artboard" fill="none" fill-rule="evenodd" stroke="none" stroke-width="1"><g id="Search" transform="translate(52.000000, 144.000000)"><g id="Group-21"><rect id="Rectangle-11-Copy" width="216" height="32" x="0" y="0" fill="#F3F3F3"/><g id="icon/image/search/20" transform="translate(8.000000, 8.000000)"><g id="search" fill-rule="evenodd" stroke-width="1" transform="translate(1.000000, 1.000000)"><mask id="mask-2" fill="#fff"><use xlink:href="#path-1"/></mask><use id="Mask" fill="#000" fill-rule="nonzero" xlink:href="#path-1"/><g id="color/gray/70" fill="#565656" mask="url(#mask-2)"><g transform="translate(-1.000000, -1.000000)"><rect width="32" height="32" x="0" y="0"/></g></g></g><rect id="transparent-rectangle" width="16" height="16" x="0" y="0"/></g><path id="Path-3-Copy-8" stroke="#8C8C8C" d="M0,31.5 L216,31.5"/><g id="icon/navigation/close/20" transform="translate(192.000000, 8.000000)"><g id="Group"><g id="close" transform="translate(4.000000, 4.000000)"><mask id="mask-4" fill="#fff"><use xlink:href="#path-3"/></mask><use id="Mask" fill="#000" fill-rule="nonzero" xlink:href="#path-3"/><g id="color/gray/100" fill="#171717" mask="url(#mask-4)"><g transform="translate(-4.000000, -4.000000)"><rect width="32" height="32" x="0" y="0"/></g></g></g><rect id="transparent-rectangle" width="16" height="16" x="0" y="0"/></g></g><rect id="Rectangle-Copy-14" width="96" height="12" x="33" y="10" fill="#D8D8D8"/></g></g></g></svg>