<svg xmlns="http://www.w3.org/2000/svg" xmlns:xlink="http://www.w3.org/1999/xlink" width="18" height="18" version="1.1" viewBox="0 0 18 18"><title>icon color</title><desc>Created with Sketch.</desc><defs><path id="path-1" d="M13.03125,12.125 C15.374581,9.29760025 15.0821769,5.1277481 12.3671855,2.65505497 C9.65219415,0.18236184 5.47324054,0.279900683 2.87657061,2.87657061 C0.279900683,5.47324054 0.18236184,9.65219415 2.65505497,12.3671855 C5.1277481,15.0821769 9.29760025,15.374581 12.125,13.03125 L16.86875,17.75 L17.75,16.86875 L13.03125,12.125 Z M7.75,13.375 C4.64339828,13.375 2.125,10.8566017 2.125,7.75 C2.125,4.64339828 4.64339828,2.125 7.75,2.125 C10.8566017,2.125 13.375,4.64339828 13.375,7.75 C13.375,9.24184276 12.7823678,10.6725835 11.7274756,11.7274756 C10.6725835,12.7823678 9.24184276,13.375 7.75,13.375 Z"/></defs><g id="Edit-here" fill="none" fill-rule="evenodd" stroke="none" stroke-width="1"><g id="New-Runbook---DRAFT-(Step-2)" transform="translate(-489.000000, -23.000000)"><g id="icon/navigation/zoom/in/20" transform="translate(489.000000, 23.000000)"><mask id="mask-2" fill="#fff"><use xlink:href="#path-1"/></mask><use id="icon-color" fill="#565656" xlink:href="#path-1"/></g></g></g></svg>