<svg xmlns="http://www.w3.org/2000/svg" width="1920" height="960" fill="none" viewBox="0 0 1920 960"><path fill="#1B1F23" d="M1920 0H0V960H1920V0Z"/><path fill="#032F62" d="M1693 0H1657C1653.69 0 1651 2.68629 1651 6V42C1651 45.3137 1653.69 48 1657 48H1693C1696.31 48 1699 45.3137 1699 42V6C1699 2.68629 1696.31 0 1693 0Z"/><path fill="#24292E" d="M1693 60H1657C1653.69 60 1651 62.6863 1651 66V102C1651 105.314 1653.69 108 1657 108H1693C1696.31 108 1699 105.314 1699 102V66C1699 62.6863 1696.31 60 1693 60Z"/><path fill="#24292E" d="M1693 120H1657C1653.69 120 1651 122.686 1651 126V162C1651 165.314 1653.69 168 1657 168H1693C1696.31 168 1699 165.314 1699 162V126C1699 122.686 1696.31 120 1693 120Z"/><path fill="#005CC5" d="M1693 180H1657C1653.69 180 1651 182.686 1651 186V222C1651 225.314 1653.69 228 1657 228H1693C1696.31 228 1699 225.314 1699 222V186C1699 182.686 1696.31 180 1693 180Z"/><path fill="#005CC5" d="M1393 720H1357C1353.69 720 1351 722.686 1351 726V762C1351 765.314 1353.69 768 1357 768H1393C1396.31 768 1399 765.314 1399 762V726C1399 722.686 1396.31 720 1393 720Z"/><path fill="#24292E" d="M1693 300H1657C1653.69 300 1651 302.686 1651 306V342C1651 345.314 1653.69 348 1657 348H1693C1696.31 348 1699 345.314 1699 342V306C1699 302.686 1696.31 300 1693 300Z"/><path fill="#24292E" d="M1393 840H1357C1353.69 840 1351 842.686 1351 846V882C1351 885.314 1353.69 888 1357 888H1393C1396.31 888 1399 885.314 1399 882V846C1399 842.686 1396.31 840 1393 840Z"/><path fill="#24292E" d="M1693 360H1657C1653.69 360 1651 362.686 1651 366V402C1651 405.314 1653.69 408 1657 408H1693C1696.31 408 1699 405.314 1699 402V366C1699 362.686 1696.31 360 1693 360Z"/><path fill="#24292E" d="M1393 900H1357C1353.69 900 1351 902.686 1351 906V942C1351 945.314 1353.69 948 1357 948H1393C1396.31 948 1399 945.314 1399 942V906C1399 902.686 1396.31 900 1393 900Z"/><path fill="#24292E" d="M1693 540H1657C1653.69 540 1651 542.686 1651 546V582C1651 585.314 1653.69 588 1657 588H1693C1696.31 588 1699 585.314 1699 582V546C1699 542.686 1696.31 540 1693 540Z"/><path fill="#24292E" d="M1693 600H1657C1653.69 600 1651 602.686 1651 606V642C1651 645.314 1653.69 648 1657 648H1693C1696.31 648 1699 645.314 1699 642V606C1699 602.686 1696.31 600 1693 600Z"/><path fill="#24292E" d="M1033 840H997C993.686 840 991 842.686 991 846V882C991 885.314 993.686 888 997 888H1033C1036.31 888 1039 885.314 1039 882V846C1039 842.686 1036.31 840 1033 840Z"/><path fill="#005CC5" d="M1693 660H1657C1653.69 660 1651 662.686 1651 666V702C1651 705.314 1653.69 708 1657 708H1693C1696.31 708 1699 705.314 1699 702V666C1699 662.686 1696.31 660 1693 660Z"/><path fill="#032F62" d="M1693 720H1657C1653.69 720 1651 722.686 1651 726V762C1651 765.314 1653.69 768 1657 768H1693C1696.31 768 1699 765.314 1699 762V726C1699 722.686 1696.31 720 1693 720Z"/><path fill="#24292E" d="M1693 780H1657C1653.69 780 1651 782.686 1651 786V822C1651 825.314 1653.69 828 1657 828H1693C1696.31 828 1699 825.314 1699 822V786C1699 782.686 1696.31 780 1693 780Z"/><path fill="#24292E" d="M1693 840H1657C1653.69 840 1651 842.686 1651 846V882C1651 885.314 1653.69 888 1657 888H1693C1696.31 888 1699 885.314 1699 882V846C1699 842.686 1696.31 840 1693 840Z"/><path fill="#005CC5" d="M1453 120H1417C1413.69 120 1411 122.686 1411 126V162C1411 165.314 1413.69 168 1417 168H1453C1456.31 168 1459 165.314 1459 162V126C1459 122.686 1456.31 120 1453 120Z"/><path fill="#24292E" d="M1153 780H1117C1113.69 780 1111 782.686 1111 786V822C1111 825.314 1113.69 828 1117 828H1153C1156.31 828 1159 825.314 1159 822V786C1159 782.686 1156.31 780 1153 780Z"/><path fill="#032F62" d="M1453 360H1417C1413.69 360 1411 362.686 1411 366V402C1411 405.314 1413.69 408 1417 408H1453C1456.31 408 1459 405.314 1459 402V366C1459 362.686 1456.31 360 1453 360Z"/><path fill="#032F62" d="M1153 900H1117C1113.69 900 1111 902.686 1111 906V942C1111 945.314 1113.69 948 1117 948H1153C1156.31 948 1159 945.314 1159 942V906C1159 902.686 1156.31 900 1153 900Z"/><path fill="#24292E" d="M1453 480H1417C1413.69 480 1411 482.686 1411 486V522C1411 525.314 1413.69 528 1417 528H1453C1456.31 528 1459 525.314 1459 522V486C1459 482.686 1456.31 480 1453 480Z"/><path fill="#005CC5" d="M1453 540H1417C1413.69 540 1411 542.686 1411 546V582C1411 585.314 1413.69 588 1417 588H1453C1456.31 588 1459 585.314 1459 582V546C1459 542.686 1456.31 540 1453 540Z"/><path fill="#24292E" d="M1453 660H1417C1413.69 660 1411 662.686 1411 666V702C1411 705.314 1413.69 708 1417 708H1453C1456.31 708 1459 705.314 1459 702V666C1459 662.686 1456.31 660 1453 660Z"/><path fill="#24292E" d="M793 900H757C753.686 900 751 902.686 751 906V942C751 945.314 753.686 948 757 948H793C796.314 948 799 945.314 799 942V906C799 902.686 796.314 900 793 900Z"/><path fill="#24292E" d="M1453 720H1417C1413.69 720 1411 722.686 1411 726V762C1411 765.314 1413.69 768 1417 768H1453C1456.31 768 1459 765.314 1459 762V726C1459 722.686 1456.31 720 1453 720Z"/><path fill="#032F62" d="M1453 780H1417C1413.69 780 1411 782.686 1411 786V822C1411 825.314 1413.69 828 1417 828H1453C1456.31 828 1459 825.314 1459 822V786C1459 782.686 1456.31 780 1453 780Z"/><path fill="#24292E" d="M1753 0H1717C1713.69 0 1711 2.68629 1711 6V42C1711 45.3137 1713.69 48 1717 48H1753C1756.31 48 1759 45.3137 1759 42V6C1759 2.68629 1756.31 0 1753 0Z"/><path fill="#24292E" d="M1753 120H1717C1713.69 120 1711 122.686 1711 126V162C1711 165.314 1713.69 168 1717 168H1753C1756.31 168 1759 165.314 1759 162V126C1759 122.686 1756.31 120 1753 120Z"/><path fill="#032F62" d="M1753 180H1717C1713.69 180 1711 182.686 1711 186V222C1711 225.314 1713.69 228 1717 228H1753C1756.31 228 1759 225.314 1759 222V186C1759 182.686 1756.31 180 1753 180Z"/><path fill="#24292E" d="M1753 300H1717C1713.69 300 1711 302.686 1711 306V342C1711 345.314 1713.69 348 1717 348H1753C1756.31 348 1759 345.314 1759 342V306C1759 302.686 1756.31 300 1753 300Z"/><path fill="#24292E" d="M1753 420H1717C1713.69 420 1711 422.686 1711 426V462C1711 465.314 1713.69 468 1717 468H1753C1756.31 468 1759 465.314 1759 462V426C1759 422.686 1756.31 420 1753 420Z"/><path fill="#005CC5" d="M1753 540H1717C1713.69 540 1711 542.686 1711 546V582C1711 585.314 1713.69 588 1717 588H1753C1756.31 588 1759 585.314 1759 582V546C1759 542.686 1756.31 540 1753 540Z"/><path fill="#24292E" d="M1513 600H1477C1473.69 600 1471 602.686 1471 606V642C1471 645.314 1473.69 648 1477 648H1513C1516.31 648 1519 645.314 1519 642V606C1519 602.686 1516.31 600 1513 600Z"/><path fill="#24292E" d="M1093 840H1057C1053.69 840 1051 842.686 1051 846V882C1051 885.314 1053.69 888 1057 888H1093C1096.31 888 1099 885.314 1099 882V846C1099 842.686 1096.31 840 1093 840Z"/><path fill="#24292E" d="M1093 900H1057C1053.69 900 1051 902.686 1051 906V942C1051 945.314 1053.69 948 1057 948H1093C1096.31 948 1099 945.314 1099 942V906C1099 902.686 1096.31 900 1093 900Z"/><path fill="#24292E" d="M1753 720H1717C1713.69 720 1711 722.686 1711 726V762C1711 765.314 1713.69 768 1717 768H1753C1756.31 768 1759 765.314 1759 762V726C1759 722.686 1756.31 720 1753 720Z"/><path fill="#24292E" d="M1753 840H1717C1713.69 840 1711 842.686 1711 846V882C1711 885.314 1713.69 888 1717 888H1753C1756.31 888 1759 885.314 1759 882V846C1759 842.686 1756.31 840 1753 840Z"/><path fill="#005CC5" d="M1753 900H1717C1713.69 900 1711 902.686 1711 906V942C1711 945.314 1713.69 948 1717 948H1753C1756.31 948 1759 945.314 1759 942V906C1759 902.686 1756.31 900 1753 900Z"/><path fill="#032F62" d="M1513 180H1477C1473.69 180 1471 182.686 1471 186V222C1471 225.314 1473.69 228 1477 228H1513C1516.31 228 1519 225.314 1519 222V186C1519 182.686 1516.31 180 1513 180Z"/><path fill="#24292E" d="M1513 240H1477C1473.69 240 1471 242.686 1471 246V282C1471 285.314 1473.69 288 1477 288H1513C1516.31 288 1519 285.314 1519 282V246C1519 242.686 1516.31 240 1513 240Z"/><path fill="#24292E" d="M1213 780H1177C1173.69 780 1171 782.686 1171 786V822C1171 825.314 1173.69 828 1177 828H1213C1216.31 828 1219 825.314 1219 822V786C1219 782.686 1216.31 780 1213 780Z"/><path fill="#032F62" d="M1213 900H1177C1173.69 900 1171 902.686 1171 906V942C1171 945.314 1173.69 948 1177 948H1213C1216.31 948 1219 945.314 1219 942V906C1219 902.686 1216.31 900 1213 900Z"/><path fill="#24292E" d="M853 840H817C813.686 840 811 842.686 811 846V882C811 885.314 813.686 888 817 888H853C856.314 888 859 885.314 859 882V846C859 842.686 856.314 840 853 840Z"/><path fill="#032F62" d="M1513 660H1477C1473.69 660 1471 662.686 1471 666V702C1471 705.314 1473.69 708 1477 708H1513C1516.31 708 1519 705.314 1519 702V666C1519 662.686 1516.31 660 1513 660Z"/><path fill="#24292E" d="M1513 720H1477C1473.69 720 1471 722.686 1471 726V762C1471 765.314 1473.69 768 1477 768H1513C1516.31 768 1519 765.314 1519 762V726C1519 722.686 1516.31 720 1513 720Z"/><path fill="#24292E" d="M1513 840H1477C1473.69 840 1471 842.686 1471 846V882C1471 885.314 1473.69 888 1477 888H1513C1516.31 888 1519 885.314 1519 882V846C1519 842.686 1516.31 840 1513 840Z"/><path fill="#24292E" d="M1513 900H1477C1473.69 900 1471 902.686 1471 906V942C1471 945.314 1473.69 948 1477 948H1513C1516.31 948 1519 945.314 1519 942V906C1519 902.686 1516.31 900 1513 900Z"/><path fill="#24292E" d="M1813 60H1777C1773.69 60 1771 62.6863 1771 66V102C1771 105.314 1773.69 108 1777 108H1813C1816.31 108 1819 105.314 1819 102V66C1819 62.6863 1816.31 60 1813 60Z"/><path fill="#24292E" d="M1813 180H1777C1773.69 180 1771 182.686 1771 186V222C1771 225.314 1773.69 228 1777 228H1813C1816.31 228 1819 225.314 1819 222V186C1819 182.686 1816.31 180 1813 180Z"/><path fill="#005CC5" d="M1813 240H1777C1773.69 240 1771 242.686 1771 246V282C1771 285.314 1773.69 288 1777 288H1813C1816.31 288 1819 285.314 1819 282V246C1819 242.686 1816.31 240 1813 240Z"/><path fill="#032F62" d="M1813 360H1777C1773.69 360 1771 362.686 1771 366V402C1771 405.314 1773.69 408 1777 408H1813C1816.31 408 1819 405.314 1819 402V366C1819 362.686 1816.31 360 1813 360Z"/><path fill="#24292E" d="M1813 420H1777C1773.69 420 1771 422.686 1771 426V462C1771 465.314 1773.69 468 1777 468H1813C1816.31 468 1819 465.314 1819 462V426C1819 422.686 1816.31 420 1813 420Z"/><path fill="#24292E" d="M1813 480H1777C1773.69 480 1771 482.686 1771 486V522C1771 525.314 1773.69 528 1777 528H1813C1816.31 528 1819 525.314 1819 522V486C1819 482.686 1816.31 480 1813 480Z"/><path fill="#24292E" d="M1813 660H1777C1773.69 660 1771 662.686 1771 666V702C1771 705.314 1773.69 708 1777 708H1813C1816.31 708 1819 705.314 1819 702V666C1819 662.686 1816.31 660 1813 660Z"/><path fill="#24292E" d="M1813 720H1777C1773.69 720 1771 722.686 1771 726V762C1771 765.314 1773.69 768 1777 768H1813C1816.31 768 1819 765.314 1819 762V726C1819 722.686 1816.31 720 1813 720Z"/><path fill="#005CC5" d="M1813 780H1777C1773.69 780 1771 782.686 1771 786V822C1771 825.314 1773.69 828 1777 828H1813C1816.31 828 1819 825.314 1819 822V786C1819 782.686 1816.31 780 1813 780Z"/><path fill="#032F62" d="M1813 900H1777C1773.69 900 1771 902.686 1771 906V942C1771 945.314 1773.69 948 1777 948H1813C1816.31 948 1819 945.314 1819 942V906C1819 902.686 1816.31 900 1813 900Z"/><path fill="#005CC5" d="M1573 60H1537C1533.69 60 1531 62.6863 1531 66V102C1531 105.314 1533.69 108 1537 108H1573C1576.31 108 1579 105.314 1579 102V66C1579 62.6863 1576.31 60 1573 60Z"/><path fill="#24292E" d="M1573 120H1537C1533.69 120 1531 122.686 1531 126V162C1531 165.314 1533.69 168 1537 168H1573C1576.31 168 1579 165.314 1579 162V126C1579 122.686 1576.31 120 1573 120Z"/><path fill="#032F62" d="M1273 780H1237C1233.69 780 1231 782.686 1231 786V822C1231 825.314 1233.69 828 1237 828H1273C1276.31 828 1279 825.314 1279 822V786C1279 782.686 1276.31 780 1273 780Z"/><path fill="#24292E" d="M1573 300H1537C1533.69 300 1531 302.686 1531 306V342C1531 345.314 1533.69 348 1537 348H1573C1576.31 348 1579 345.314 1579 342V306C1579 302.686 1576.31 300 1573 300Z"/><path fill="#24292E" d="M1273 840H1237C1233.69 840 1231 842.686 1231 846V882C1231 885.314 1233.69 888 1237 888H1273C1276.31 888 1279 885.314 1279 882V846C1279 842.686 1276.31 840 1273 840Z"/><path fill="#24292E" d="M1573 360H1537C1533.69 360 1531 362.686 1531 366V402C1531 405.314 1533.69 408 1537 408H1573C1576.31 408 1579 405.314 1579 402V366C1579 362.686 1576.31 360 1573 360Z"/><path fill="#24292E" d="M1273 900H1237C1233.69 900 1231 902.686 1231 906V942C1231 945.314 1233.69 948 1237 948H1273C1276.31 948 1279 945.314 1279 942V906C1279 902.686 1276.31 900 1273 900Z"/><path fill="#032F62" d="M1705 528H1669C1665.69 528 1663 530.686 1663 534V570C1663 573.314 1665.69 576 1669 576H1705C1708.31 576 1711 573.314 1711 570V534C1711 530.686 1708.31 528 1705 528Z"/><path fill="#24292E" d="M1573 540H1537C1533.69 540 1531 542.686 1531 546V582C1531 585.314 1533.69 588 1537 588H1573C1576.31 588 1579 585.314 1579 582V546C1579 542.686 1576.31 540 1573 540Z"/><path fill="#032F62" d="M1573 600H1537C1533.69 600 1531 602.686 1531 606V642C1531 645.314 1533.69 648 1537 648H1573C1576.31 648 1579 645.314 1579 642V606C1579 602.686 1576.31 600 1573 600Z"/><path fill="#24292E" d="M1573 660H1537C1533.69 660 1531 662.686 1531 666V702C1531 705.314 1533.69 708 1537 708H1573C1576.31 708 1579 705.314 1579 702V666C1579 662.686 1576.31 660 1573 660Z"/><path fill="#24292E" d="M913 900H877C873.686 900 871 902.686 871 906V942C871 945.314 873.686 948 877 948H913C916.314 948 919 945.314 919 942V906C919 902.686 916.314 900 913 900Z"/><path fill="#24292E" d="M1573 780H1537C1533.69 780 1531 782.686 1531 786V822C1531 825.314 1533.69 828 1537 828H1573C1576.31 828 1579 825.314 1579 822V786C1579 782.686 1576.31 780 1573 780Z"/><path fill="#032F62" d="M1573 840H1537C1533.69 840 1531 842.686 1531 846V882C1531 885.314 1533.69 888 1537 888H1573C1576.31 888 1579 885.314 1579 882V846C1579 842.686 1576.31 840 1573 840Z"/><path fill="#005CC5" d="M1873 0H1837C1833.69 0 1831 2.68629 1831 6V42C1831 45.3137 1833.69 48 1837 48H1873C1876.31 48 1879 45.3137 1879 42V6C1879 2.68629 1876.31 0 1873 0Z"/><path fill="#032F62" d="M1873 60H1837C1833.69 60 1831 62.6863 1831 66V102C1831 105.314 1833.69 108 1837 108H1873C1876.31 108 1879 105.314 1879 102V66C1879 62.6863 1876.31 60 1873 60Z"/><path fill="#24292E" d="M1873 120H1837C1833.69 120 1831 122.686 1831 126V162C1831 165.314 1833.69 168 1837 168H1873C1876.31 168 1879 165.314 1879 162V126C1879 122.686 1876.31 120 1873 120Z"/><path fill="#005CC5" d="M1873 240H1837C1833.69 240 1831 242.686 1831 246V282C1831 285.314 1833.69 288 1837 288H1873C1876.31 288 1879 285.314 1879 282V246C1879 242.686 1876.31 240 1873 240Z"/><path fill="#24292E" d="M1873 300H1837C1833.69 300 1831 302.686 1831 306V342C1831 345.314 1833.69 348 1837 348H1873C1876.31 348 1879 345.314 1879 342V306C1879 302.686 1876.31 300 1873 300Z"/><path fill="#005CC5" d="M1873 360H1837C1833.69 360 1831 362.686 1831 366V402C1831 405.314 1833.69 408 1837 408H1873C1876.31 408 1879 405.314 1879 402V366C1879 362.686 1876.31 360 1873 360Z"/><path fill="#24292E" d="M1873 480H1837C1833.69 480 1831 482.686 1831 486V522C1831 525.314 1833.69 528 1837 528H1873C1876.31 528 1879 525.314 1879 522V486C1879 482.686 1876.31 480 1873 480Z"/><path fill="#24292E" d="M1873 600H1837C1833.69 600 1831 602.686 1831 606V642C1831 645.314 1833.69 648 1837 648H1873C1876.31 648 1879 645.314 1879 642V606C1879 602.686 1876.31 600 1873 600Z"/><path fill="#032F62" d="M1873 660H1837C1833.69 660 1831 662.686 1831 666V702C1831 705.314 1833.69 708 1837 708H1873C1876.31 708 1879 705.314 1879 702V666C1879 662.686 1876.31 660 1873 660Z"/><path fill="#24292E" d="M1873 900H1837C1833.69 900 1831 902.686 1831 906V942C1831 945.314 1833.69 948 1837 948H1873C1876.31 948 1879 945.314 1879 942V906C1879 902.686 1876.31 900 1873 900Z"/><path fill="#24292E" d="M1633 0H1597C1593.69 0 1591 2.68629 1591 6V42C1591 45.3137 1593.69 48 1597 48H1633C1636.31 48 1639 45.3137 1639 42V6C1639 2.68629 1636.31 0 1633 0Z"/><path fill="#032F62" d="M1633 60H1597C1593.69 60 1591 62.6863 1591 66V102C1591 105.314 1593.69 108 1597 108H1633C1636.31 108 1639 105.314 1639 102V66C1639 62.6863 1636.31 60 1633 60Z"/><path fill="#24292E" d="M1633 180H1597C1593.69 180 1591 182.686 1591 186V222C1591 225.314 1593.69 228 1597 228H1633C1636.31 228 1639 225.314 1639 222V186C1639 182.686 1636.31 180 1633 180Z"/><path fill="#24292E" d="M1333 720H1297C1293.69 720 1291 722.686 1291 726V762C1291 765.314 1293.69 768 1297 768H1333C1336.31 768 1339 765.314 1339 762V726C1339 722.686 1336.31 720 1333 720Z"/><path fill="#24292E" d="M1633 240H1597C1593.69 240 1591 242.686 1591 246V282C1591 285.314 1593.69 288 1597 288H1633C1636.31 288 1639 285.314 1639 282V246C1639 242.686 1636.31 240 1633 240Z"/><path fill="#24292E" d="M1333 780H1297C1293.69 780 1291 782.686 1291 786V822C1291 825.314 1293.69 828 1297 828H1333C1336.31 828 1339 825.314 1339 822V786C1339 782.686 1336.31 780 1333 780Z"/><path fill="#005CC5" d="M1633 300H1597C1593.69 300 1591 302.686 1591 306V342C1591 345.314 1593.69 348 1597 348H1633C1636.31 348 1639 345.314 1639 342V306C1639 302.686 1636.31 300 1633 300Z"/><path fill="#005CC5" d="M1333 840H1297C1293.69 840 1291 842.686 1291 846V882C1291 885.314 1293.69 888 1297 888H1333C1336.31 888 1339 885.314 1339 882V846C1339 842.686 1336.31 840 1333 840Z"/><path fill="#24292E" d="M1633 420H1597C1593.69 420 1591 422.686 1591 426V462C1591 465.314 1593.69 468 1597 468H1633C1636.31 468 1639 465.314 1639 462V426C1639 422.686 1636.31 420 1633 420Z"/><path fill="#032F62" d="M1633 480H1597C1593.69 480 1591 482.686 1591 486V522C1591 525.314 1593.69 528 1597 528H1633C1636.31 528 1639 525.314 1639 522V486C1639 482.686 1636.31 480 1633 480Z"/><path fill="#24292E" d="M1633 540H1597C1593.69 540 1591 542.686 1591 546V582C1591 585.314 1593.69 588 1597 588H1633C1636.31 588 1639 585.314 1639 582V546C1639 542.686 1636.31 540 1633 540Z"/><path fill="#005CC5" d="M1633 660H1597C1593.69 660 1591 662.686 1591 666V702C1591 705.314 1593.69 708 1597 708H1633C1636.31 708 1639 705.314 1639 702V666C1639 662.686 1636.31 660 1633 660Z"/><path fill="#005CC5" d="M973 900H937C933.686 900 931 902.686 931 906V942C931 945.314 933.686 948 937 948H973C976.314 948 979 945.314 979 942V906C979 902.686 976.314 900 973 900Z"/><path fill="#24292E" d="M1633 720H1597C1593.69 720 1591 722.686 1591 726V762C1591 765.314 1593.69 768 1597 768H1633C1636.31 768 1639 765.314 1639 762V726C1639 722.686 1636.31 720 1633 720Z"/><path fill="#005CC5" d="M1633 900H1597C1593.69 900 1591 902.686 1591 906V942C1591 945.314 1593.69 948 1597 948H1633C1636.31 948 1639 945.314 1639 942V906C1639 902.686 1636.31 900 1633 900Z"/></svg>