<svg xmlns="http://www.w3.org/2000/svg" xmlns:xlink="http://www.w3.org/1999/xlink" width="14" height="14" version="1.1" viewBox="0 0 14 14"><title>icon color</title><desc>Created with Sketch.</desc><defs><path id="path-1" d="M400.75,147.125 L403.25,147.125 L403.25,149.625 L400.75,149.625 L400.75,147.125 Z M395.125,147.125 L397.625,147.125 L397.625,149.625 L395.125,149.625 L395.125,147.125 Z M406.375,147.125 L408.875,147.125 L408.875,149.625 L406.375,149.625 L406.375,147.125 Z M400.75,152.75 L403.25,152.75 L403.25,155.25 L400.75,155.25 L400.75,152.75 Z M395.125,152.75 L397.625,152.75 L397.625,155.25 L395.125,155.25 L395.125,152.75 Z M406.375,152.75 L408.875,152.75 L408.875,155.25 L406.375,155.25 L406.375,152.75 Z M400.75,158.375 L403.25,158.375 L403.25,160.875 L400.75,160.875 L400.75,158.375 Z M395.125,158.375 L397.625,158.375 L397.625,160.875 L395.125,160.875 L395.125,158.375 Z M406.375,158.375 L408.875,158.375 L408.875,160.875 L406.375,160.875 L406.375,158.375 Z"/></defs><g id="Page-1" fill="none" fill-rule="evenodd" stroke="none" stroke-width="1"><g id="Artboard" transform="translate(-395.000000, -147.000000)"><mask id="mask-2" fill="#fff"><use xlink:href="#path-1"/></mask><use id="icon-color" fill="#F3F3F3" xlink:href="#path-1"/></g></g></svg>