<svg xmlns="http://www.w3.org/2000/svg" xmlns:xlink="http://www.w3.org/1999/xlink" width="320" height="320" version="1.1" viewBox="0 0 320 320"><title>Artboard</title><desc>Created with Sketch.</desc><defs><polygon id="path-1" points="3.573 0 7.145 3.573 6.586 4.132 3.573 1.123 .56 4.132 0 3.573"/></defs><g id="Artboard" fill="none" fill-rule="evenodd" stroke="none" stroke-width="1"><g id="Data_table" transform="translate(52.000000, 94.000000)"><rect id="Rectangle-25-Copy-3" width="216" height="22.218" x="0" y="0" fill="#F3F3F3"/><rect id="Rectangle-25-Copy-4" width="216" height="87.218" x="0" y="44" fill="#F3F3F3"/><g id="color/gray/20" fill="#DCDCDC" transform="translate(108.000000, 67.500000) scale(1, -1) translate(-108.000000, -67.500000) translate(0.000000, 67.000000)"><rect width="216" height="1" x="0" y="0"/></g><g id="color/gray/20" fill="#DCDCDC" transform="translate(108.000000, 88.500000) scale(1, -1) translate(-108.000000, -88.500000) translate(0.000000, 88.000000)"><rect width="216" height="1" x="0" y="0"/></g><g id="color/gray/20" fill="#DCDCDC" transform="translate(108.000000, 109.500000) scale(1, -1) translate(-108.000000, -109.500000) translate(0.000000, 109.000000)"><rect width="216" height="1" x="0" y="0"/></g><rect id="Rectangle" width="216" height="22" x="0" y="22" fill="#FFF"/><g id="icon/navigation/chevron/up/16" transform="translate(85.635417, 33.644670) scale(1, -1) rotate(180.000000) translate(-85.635417, -33.644670) translate(79.000000, 27.000000)"><g id="chevron--up" fill-rule="evenodd" stroke-width="1" transform="translate(2.778750, 3.969643)"><mask id="mask-2" fill="#fff"><use xlink:href="#path-1"/></mask><use id="Mask" fill="#000" fill-rule="nonzero" xlink:href="#path-1"/><g id="color/black" fill="#000" mask="url(#mask-2)"><g transform="translate(-2.778750, -3.969643)"><rect width="13" height="13" x="0" y="0"/></g></g></g><polygon id="transparent-rectangle" points="0 0 12.703 0 12.703 12.703 0 12.703" transform="translate(6.351429, 6.351429) rotate(-90.000000) translate(-6.351429, -6.351429)"/></g><rect id="Rectangle-25-Copy-19" width="64" height="22" x="152" y="0" fill="#0068FF"/><rect id="Rectangle-Copy-126" width="64.912" height="8" x="9" y="29" fill="#D8D8D8"/><rect id="Rectangle-Copy-128" width="64.912" height="8" x="9" y="53" fill="#D8D8D8"/><rect id="Rectangle-Copy-130" width="64.912" height="8" x="9" y="74" fill="#D8D8D8"/><circle id="Oval" cx="154" cy="57" r="3" fill="#20D5D2"/><circle id="Oval-Copy" cx="154" cy="78" r="3" fill="#D12765"/><rect id="Rectangle-Copy-127" width="48" height="8" x="152" y="29" fill="#D8D8D8"/><rect id="Rectangle-Copy-129" width="38" height="8" x="161" y="53" fill="#D8D8D8"/><rect id="Rectangle-Copy-131" width="38" height="8" x="161" y="74" fill="#D8D8D8"/><rect id="Rectangle-Copy-133" width="64.912" height="8" x="9" y="95" fill="#D8D8D8"/><circle id="Oval-Copy-2" cx="154" cy="99" r="3" fill="#4F2196"/><rect id="Rectangle-Copy-132" width="38" height="8" x="161" y="95" fill="#D8D8D8"/><rect id="Rectangle-Copy-135" width="64.912" height="8" x="9" y="116" fill="#D8D8D8"/><circle id="Oval-Copy-3" cx="154" cy="120" r="3" fill="#20D5D2"/><rect id="Rectangle-Copy-134" width="38" height="8" x="161" y="116" fill="#D8D8D8"/></g></g></svg>