<svg xmlns="http://www.w3.org/2000/svg" xmlns:xlink="http://www.w3.org/1999/xlink" width="16" height="18" version="1.1" viewBox="0 0 16 18"><title>icon color</title><desc>Created with Sketch.</desc><defs><path id="path-1" d="M14.25,8.375 L13.36875,7.49375 L8.625,12.23125 L8.625,0.25 L7.375,0.25 L7.375,12.23125 L2.63125,7.49375 L1.75,8.375 L8,14.625 L14.25,8.375 L14.25,8.375 Z M14.25,14 L14.25,16.5 L1.75,16.5 L1.75,14 L0.5,14 L0.5,16.5 L0.5,16.5 C0.5,17.1903559 1.05964406,17.75 1.75,17.75 L14.25,17.75 C14.9403559,17.75 15.5,17.1903559 15.5,16.5 L15.5,16.5 L15.5,14 L14.25,14 Z"/></defs><g id="Page-1" fill="none" fill-rule="evenodd" stroke="none" stroke-width="1"><g id="Artboard" transform="translate(-873.000000, -758.000000)"><g id="icon/file/download/20" transform="translate(873.000000, 758.000000)"><mask id="mask-2" fill="#fff"><use xlink:href="#path-1"/></mask><use id="icon-color" fill="#FFF" xlink:href="#path-1"/></g></g></g></svg>