<?xml version="1.0" encoding="UTF-8"?>
<svg width="16px" height="18px" viewBox="0 0 16 18" version="1.1" xmlns="http://www.w3.org/2000/svg" xmlns:xlink="http://www.w3.org/1999/xlink">
    <!-- Generator: Sketch 54.1 (76490) - https://sketchapp.com -->
    <title>icon color</title>
    <desc>Created with Sketch.</desc>
    <defs>
        <path d="M14.25,8.375 L13.36875,7.49375 L8.625,12.23125 L8.625,0.25 L7.375,0.25 L7.375,12.23125 L2.63125,7.49375 L1.75,8.375 L8,14.625 L14.25,8.375 L14.25,8.375 Z M14.25,14 L14.25,16.5 L1.75,16.5 L1.75,14 L0.5,14 L0.5,16.5 L0.5,16.5 C0.5,17.1903559 1.05964406,17.75 1.75,17.75 L14.25,17.75 C14.9403559,17.75 15.5,17.1903559 15.5,16.5 L15.5,16.5 L15.5,14 L14.25,14 Z" id="path-1"></path>
    </defs>
    <g id="Page-1" stroke="none" stroke-width="1" fill="none" fill-rule="evenodd">
        <g id="Artboard" transform="translate(-873.000000, -758.000000)">
            <g id="icon/file/download/20" transform="translate(873.000000, 758.000000)">
                <mask id="mask-2" fill="white">
                    <use xlink:href="#path-1"></use>
                </mask>
                <use id="icon-color" fill="#FFFFFF" xlink:href="#path-1"></use>
            </g>
        </g>
    </g>
</svg>