<svg xmlns="http://www.w3.org/2000/svg" xmlns:xlink="http://www.w3.org/1999/xlink" width="320" height="320" version="1.1" viewBox="0 0 320 320"><title>Artboard</title><desc>Created with Sketch.</desc><defs><polygon id="path-1" points="3.573 0 7.145 3.573 6.586 4.132 3.573 1.123 .56 4.132 0 3.573"/><polygon id="path-3" points="3.573 0 7.145 3.573 6.586 4.132 3.573 1.123 .56 4.132 0 3.573"/><polygon id="path-5" points="3.573 0 7.145 3.573 6.586 4.132 3.573 1.123 .56 4.132 0 3.573"/></defs><g id="Artboard" fill="none" fill-rule="evenodd" stroke="none" stroke-width="1"><g id="Form" transform="translate(78.000000, 70.000000)"><rect id="Rectangle-25-Copy-3" width="164" height="64" x="0" y="0" fill="#F3F3F3"/><rect id="Rectangle-25-Copy-4" width="164" height="109.218" x="0" y="70" fill="#F3F3F3"/><g id="color/gray/20" fill="#DCDCDC" transform="translate(82.000000, 109.500000) scale(1, -1) translate(-82.000000, -109.500000) translate(0.000000, 109.000000)"><rect width="164" height="1" x="0" y="0"/></g><g id="color/gray/20" fill="#DCDCDC" transform="translate(82.500000, 86.500000) scale(1, -1) translate(-82.500000, -86.500000) translate(0.000000, 86.000000)"><rect width="165" height="1" x="0" y="0"/></g><g id="color/gray/20" fill="#DCDCDC" transform="translate(82.000000, 132.500000) scale(1, -1) translate(-82.000000, -132.500000) translate(0.000000, 132.000000)"><rect width="164" height="1" x="0" y="0"/></g><rect id="Rectangle-25-Copy-18" width="162.86" height="22.642" x=".57" y="63.57" fill="#FFF" stroke="#006AFF" stroke-width="1.14"/><g id="icon/navigation/chevron/up/16" transform="translate(150.635417, 74.644670) rotate(180.000000) translate(-150.635417, -74.644670) translate(144.000000, 68.000000)"><g id="chevron--up" fill-rule="evenodd" stroke-width="1" transform="translate(2.778750, 3.969643)"><mask id="mask-2" fill="#fff"><use xlink:href="#path-1"/></mask><use id="Mask" fill="#000" fill-rule="nonzero" xlink:href="#path-1"/><g id="color/black" fill="#000" mask="url(#mask-2)"><g transform="translate(-2.778750, -3.969643)"><rect width="13" height="13" x="0" y="0"/></g></g></g><polygon id="transparent-rectangle" points="0 0 12.703 0 12.703 12.703 0 12.703" transform="translate(6.351429, 6.351429) rotate(-90.000000) translate(-6.351429, -6.351429)"/></g><g id="icon/navigation/chevron/up/16" transform="translate(69.635417, 98.644670) rotate(180.000000) translate(-69.635417, -98.644670) translate(63.000000, 92.000000)"><g id="chevron--up" fill-rule="evenodd" stroke-width="1" transform="translate(2.778750, 3.969643)"><mask id="mask-4" fill="#fff"><use xlink:href="#path-3"/></mask><use id="Mask" fill="#000" fill-rule="nonzero" xlink:href="#path-3"/><g id="color/black" fill="#000" mask="url(#mask-4)"><g transform="translate(-2.778750, -3.969643)"><rect width="13" height="13" x="0" y="0"/></g></g></g><polygon id="transparent-rectangle" points="0 0 12.703 0 12.703 12.703 0 12.703" transform="translate(6.351429, 6.351429) rotate(-90.000000) translate(-6.351429, -6.351429)"/></g><g id="icon/navigation/chevron/up/16" transform="translate(150.364583, 98.644670) rotate(180.000000) translate(-150.364583, -98.644670) translate(143.729167, 92.000000)"><g id="chevron--up" fill-rule="evenodd" stroke-width="1" transform="translate(2.778750, 3.969643)"><mask id="mask-6" fill="#fff"><use xlink:href="#path-5"/></mask><use id="Mask" fill="#000" fill-rule="nonzero" xlink:href="#path-5"/><g id="color/black" fill="#000" mask="url(#mask-6)"><g transform="translate(-2.778750, -3.969643)"><rect width="13" height="13" x="0" y="0"/></g></g></g><polygon id="transparent-rectangle" points="0 0 12.703 0 12.703 12.703 0 12.703" transform="translate(6.351429, 6.351429) rotate(-90.000000) translate(-6.351429, -6.351429)"/></g><rect id="Rectangle-Copy-126" width="88" height="8" x="9" y="71" fill="#D8D8D8"/><rect id="Rectangle-Copy-137" width="88" height="8" x="9" y="140" fill="#D8D8D8"/><rect id="Rectangle-Copy-128" width="32" height="8" x="9" y="94" fill="#D8D8D8"/><rect id="Rectangle-Copy-136" width="32" height="8" x="90.729" y="94" fill="#D8D8D8"/><path id="Path-2" stroke="#DCDCDC" d="M82.5,87 L82.5,110.25"/><path id="Shape" fill="#252525" fill-rule="nonzero" d="M14,116 C11.2385763,116 9,118.238576 9,121 C9,123.761424 11.2385763,126 14,126 C16.7614237,126 19,123.761424 19,121 C19,119.673918 18.4732158,118.402148 17.5355339,117.464466 C16.597852,116.526784 15.3260824,116 14,116 Z M14,125.285714 C11.6330654,125.285714 9.71428571,123.366935 9.71428571,121 C9.71428571,118.633065 11.6330654,116.714286 14,116.714286 C16.3669346,116.714286 18.2857143,118.633065 18.2857143,121 C18.2857143,122.136642 17.834185,123.22673 17.0304576,124.030458 C16.2267303,124.834185 15.1366421,125.285714 14,125.285714 Z"/><rect id="Rectangle-3-Copy-14" width="24" height="8" x="25" y="117" fill="#D8D8D8"/><rect id="Rectangle-3-Copy-31" width="24" height="8" x="81" y="117" fill="#D8D8D8"/><rect id="Rectangle-Copy-142" width="89" height="8" x="7" y="20" fill="#D8D8D8"/><rect id="Rectangle-Copy-144" width="77" height="8" x="7" y="32" fill="#D8D8D8"/><rect id="Rectangle-Copy-143" width="64" height="8" x="7" y="8" fill="#BEBEBE"/><g id="color/blue/60" fill="#0F6DFF" transform="translate(82.000000, 155.000000)"><rect width="82" height="24" x="0" y="0"/></g><g id="color/gray/80" fill="#3D3D3D" transform="translate(0.000000, 155.000000)"><rect width="82" height="24" x="0" y="0"/></g><path id="Shape" fill="#252525" fill-rule="nonzero" d="M70,116 C67.2385763,116 65,118.238576 65,121 C65,123.761424 67.2385763,126 70,126 C72.7614237,126 75,123.761424 75,121 C75,119.673918 74.4732158,118.402148 73.5355339,117.464466 C72.597852,116.526784 71.3260824,116 70,116 Z M70,125.285714 C67.6330654,125.285714 65.7142857,123.366935 65.7142857,121 C65.7142857,118.633065 67.6330654,116.714286 70,116.714286 C72.3669346,116.714286 74.2857143,118.633065 74.2857143,121 C74.2857143,122.136642 73.834185,123.22673 73.0304576,124.030458 C72.2267303,124.834185 71.1366421,125.285714 70,125.285714 Z"/><circle id="Oval" cx="70" cy="121" r="2.143" fill="#171717" fill-rule="nonzero"/></g></g></svg>
