<svg xmlns="http://www.w3.org/2000/svg" xmlns:xlink="http://www.w3.org/1999/xlink" width="320" height="320" version="1.1" viewBox="0 0 320 320"><title>Artboard</title><desc>Created with Sketch.</desc><defs><rect id="path-1" width="216" height="122" x="0" y="0"/><filter id="filter-2" width="109.3%" height="116.4%" x="-4.6%" y="-6.6%" filterUnits="objectBoundingBox"><feOffset dx="0" dy="2" in="SourceAlpha" result="shadowOffsetOuter1"/><feGaussianBlur in="shadowOffsetOuter1" result="shadowBlurOuter1" stdDeviation="3"/><feColorMatrix in="shadowBlurOuter1" type="matrix" values="0 0 0 0 0.862745106 0 0 0 0 0.862745106 0 0 0 0 0.862745106 0 0 0 1 0"/></filter><polygon id="path-3" points="3.824 3.25 6.5 .574 5.926 0 3.25 2.676 .574 0 0 .574 2.676 3.25 0 5.926 .574 6.5 3.25 3.824 5.926 6.5 6.5 5.926"/></defs><g id="Artboard" fill="none" fill-rule="evenodd" stroke="none" stroke-width="1"><g id="modal" transform="translate(52.000000, 99.000000)"><g id="Rectangle" fill="#000" fill-opacity="1"><use filter="url(#filter-2)" xlink:href="#path-1"/></g><g id="color/gray/10" fill="#F3F3F3"><rect width="216" height="122" x="0" y="0"/></g><rect id="Rectangle-Copy-138" width="149" height="8" x="9" y="28" fill="#D8D8D8"/><rect id="Rectangle-Copy-141" width="64" height="8" x="9" y="9" fill="#BEBEBE"/><rect id="Rectangle-Copy-140" width="149" height="8" x="9" y="52" fill="#D8D8D8"/><rect id="Rectangle-Copy-139" width="123" height="8" x="9" y="40" fill="#D8D8D8"/><g id="color/blue/60" fill="#0F6DFF" transform="translate(108.000000, 90.000000)"><rect width="108" height="32" x="0" y="0"/></g><g id="color/gray/80" fill="#3D3D3D" transform="translate(0.000000, 90.000000)"><rect width="108" height="32" x="0" y="0"/></g><g id="icon/navigation/close/20" transform="translate(193.000000, 11.000000)"><g id="Group"><g id="close" transform="translate(3.250000, 3.250000)"><mask id="mask-4" fill="#fff"><use xlink:href="#path-3"/></mask><use id="Mask" fill="#000" fill-rule="nonzero" xlink:href="#path-3"/><g id="color/black" fill="#000" mask="url(#mask-4)"><g transform="translate(-3.250000, -3.250000)"><rect width="26" height="26" x="0" y="0"/></g></g></g><rect id="transparent-rectangle" width="13" height="13" x="0" y="0"/></g></g></g></g></svg>