<svg xmlns="http://www.w3.org/2000/svg" xmlns:xlink="http://www.w3.org/1999/xlink" width="320" height="320" version="1.1" viewBox="0 0 320 320"><title>Artboard</title><desc>Created with Sketch.</desc><defs><path id="path-1" d="M150.670488,20.80552 C150.670488,23.50988 148.876376,25.6206 147.38568,26.61 L145.710296,26.61 C147.728672,25.145688 148.863184,23.932024 149.338096,21.86088 L149.272136,21.834496 C148.849992,22.573248 148.216776,23.166888 147.082264,23.166888 C145.512416,23.166888 144.364712,22.071952 144.364712,20.330608 C144.364712,18.510112 145.617952,17.24368 147.504408,17.24368 C149.470016,17.24368 150.670488,18.602456 150.670488,20.80552 Z M147.5176,22.12472 C148.665304,22.12472 149.351288,21.46512 149.351288,20.27784 L149.351288,20.159112 C149.351288,18.971832 148.665304,18.312232 147.5176,18.312232 C146.369896,18.312232 145.683912,18.971832 145.683912,20.159112 L145.683912,20.27784 C145.683912,21.46512 146.369896,22.12472 147.5176,22.12472 Z"/><polygon id="path-2" points="67.356 26.61 61.301 26.61 61.301 25.634 63.873 25.634 63.873 18.22 63.781 18.22 61.459 20.383 60.813 19.684 63.253 17.402 64.981 17.402 64.981 25.634 67.356 25.634"/><polygon id="path-3" points="0 0 4.365 3.819 0 7.639"/><polygon id="path-5" points="0 0 4.365 3.819 0 7.639"/></defs><g id="Artboard" fill="none" fill-rule="evenodd" stroke="none" stroke-width="1"><g id="Pagination" transform="translate(52.000000, 139.000000)"><g><rect id="Rectangle" width="21" height="41" x="163" y="0" fill="#D8D8D8" fill-rule="nonzero"/><polygon id="Rectangle-2-Copy-331" fill="#F3F3F3" fill-rule="nonzero" points="3.88 0 172.66 0 172.66 41.71 3.88 41.71"/><rect id="Rectangle-2-Copy-480" width="41.71" height="41.71" x="0" y="0" fill="#BEBEBE" fill-rule="nonzero"/><rect id="Rectangle-2-Copy-330" width="41.71" height="41.71" x="173.63" y="0" fill="#F3F3F3" fill-rule="nonzero"/><rect id="Rectangle-2-Copy-332" width="13.58" height="3.88" x="141" y="38" fill="#0F6FFF" fill-rule="nonzero"/><g id="…" fill="#252525" font-family="IBMPlexSans, IBM Plex Sans" font-size="13.192" font-weight="normal"><text transform="translate(101.000000, 12.000000)"><tspan x=".85" y="14.61">…</tspan></text></g><g id="9" fill-rule="nonzero"><use fill="#000" xlink:href="#path-1"/><use fill="#252525" xlink:href="#path-1"/></g><g id="1" fill-rule="nonzero"><use fill="#000" xlink:href="#path-2"/><use fill="#252525" xlink:href="#path-2"/></g><g id="icon/navigation/caret/right/20" transform="translate(185.000000, 13.000000)"><g id="caret--right" transform="translate(7.093125, 4.910625)"><g id="Mask" fill="#000" fill-rule="nonzero"><polygon id="path-1" points="0 0 4.365 3.819 0 7.639"/></g><g id="color/black-Clipped"><mask id="mask-4" fill="#fff"><use xlink:href="#path-3"/></mask><g id="color/black" mask="url(#mask-4)"><g id="Group"><g transform="translate(-8.000000, -5.000000) translate(0.906875, 0.089375)"><rect id="Rectangle" width="35" height="35" x="0" y="0" fill="#000" fill-rule="nonzero"/></g></g></g></g></g><rect id="transparent-rectangle" width="17.46" height="17.46" x="0" y="0" transform="translate(8.730000, 8.730000) rotate(-90.000000) translate(-8.730000, -8.730000)"/></g></g><g id="icon/navigation/caret/right/20" transform="translate(20.460000, 22.000000) scale(-1, 1) translate(-20.460000, -22.000000) translate(11.460000, 13.000000)"><g id="caret--right" transform="translate(7.093125, 4.910625)"><g id="Mask" fill="#000" fill-rule="nonzero"><polygon id="path-3" points="0 0 4.365 3.819 0 7.639"/></g><g id="color/black-Clipped"><mask id="mask-6" fill="#fff"><use xlink:href="#path-5"/></mask><g id="color/black" mask="url(#mask-6)"><g id="Group"><g transform="translate(-8.000000, -5.000000) translate(0.906875, 0.089375)"><rect id="Rectangle" width="35" height="35" x="0" y="0" fill="#000" fill-rule="nonzero"/></g></g></g></g></g><rect id="transparent-rectangle" width="17.46" height="17.46" x="0" y="0" transform="translate(8.730000, 8.730000) rotate(-90.000000) translate(-8.730000, -8.730000)"/></g></g></g></svg>