<svg xmlns="http://www.w3.org/2000/svg" xmlns:xlink="http://www.w3.org/1999/xlink" width="320" height="320" version="1.1" viewBox="0 0 320 320"><title>Artboard</title><desc>Created with Sketch.</desc><defs><polygon id="path-1" points="5 0 10 5 9.293 5.707 5 1.414 .707 5.707 0 5"/><polygon id="path-3" points="5 0 10 5 9.293 5.707 5 1.414 .707 5.707 0 5"/><polygon id="path-5" points="5 0 10 5 9.293 5.707 5 1.414 .707 5.707 0 5"/><polygon id="path-7" points="5 0 10 5 9.293 5.707 5 1.414 .707 5.707 0 5"/></defs><g id="Artboard" fill="none" fill-rule="evenodd" stroke="none" stroke-width="1"><g id="Accordion" transform="translate(68.000000, 110.000000)"><g id="Group-7"><rect id="Rectangle-6-Copy-8" width="94" height="12" x="0" y="59" fill="#CACACA"/><rect id="Rectangle-6-Copy-9" width="133" height="12" x="0" y="88" fill="#CACACA"/><g id="icon/navigation/chevron/up/16" transform="translate(176.000000, 66.000000) scale(1, -1) translate(-176.000000, -66.000000) translate(168.000000, 58.000000)"><g id="Group"><g id="chevron--up" transform="translate(3.000000, 5.000000)"><mask id="mask-2" fill="#fff"><use xlink:href="#path-1"/></mask><use id="Mask" fill="#000" fill-rule="nonzero" xlink:href="#path-1"/><g id="color/black" fill="#000" mask="url(#mask-2)"><g transform="translate(-3.000000, -5.000000)"><rect width="40" height="40" x="0" y="0"/></g></g></g><rect id="transparent-rectangle" width="16" height="16" x="0" y="0" transform="translate(8.000000, 8.000000) rotate(-90.000000) translate(-8.000000, -8.000000)"/></g></g><g id="icon/navigation/chevron/up/16" transform="translate(176.000000, 95.000000) scale(1, -1) translate(-176.000000, -95.000000) translate(168.000000, 87.000000)"><g id="Group"><g id="chevron--up" transform="translate(3.000000, 5.000000)"><mask id="mask-4" fill="#fff"><use xlink:href="#path-3"/></mask><use id="Mask" fill="#000" fill-rule="nonzero" xlink:href="#path-3"/><g id="color/black" fill="#000" mask="url(#mask-4)"><g transform="translate(-3.000000, -5.000000)"><rect width="40" height="40" x="0" y="0"/></g></g></g><rect id="transparent-rectangle" width="16" height="16" x="0" y="0" transform="translate(8.000000, 8.000000) rotate(-90.000000) translate(-8.000000, -8.000000)"/></g></g><rect id="Rectangle-6-Copy-8" width="94" height="12" x="0" y="1" fill="#CACACA"/><rect id="Rectangle-6-Copy-9" width="133" height="12" x="0" y="30" fill="#CACACA"/><g id="icon/navigation/chevron/up/16" transform="translate(176.000000, 8.000000) scale(1, -1) translate(-176.000000, -8.000000) translate(168.000000, 0.000000)"><g id="Group"><g id="chevron--up" transform="translate(3.000000, 5.000000)"><mask id="mask-6" fill="#fff"><use xlink:href="#path-5"/></mask><use id="Mask" fill="#000" fill-rule="nonzero" xlink:href="#path-5"/><g id="color/black" fill="#000" mask="url(#mask-6)"><g transform="translate(-3.000000, -5.000000)"><rect width="40" height="40" x="0" y="0"/></g></g></g><rect id="transparent-rectangle" width="16" height="16" x="0" y="0" transform="translate(8.000000, 8.000000) rotate(-90.000000) translate(-8.000000, -8.000000)"/></g></g><g id="icon/navigation/chevron/up/16" transform="translate(176.000000, 37.000000) scale(1, -1) translate(-176.000000, -37.000000) translate(168.000000, 29.000000)"><g id="Group"><g id="chevron--up" transform="translate(3.000000, 5.000000)"><mask id="mask-8" fill="#fff"><use xlink:href="#path-7"/></mask><use id="Mask" fill="#000" fill-rule="nonzero" xlink:href="#path-7"/><g id="color/black" fill="#000" mask="url(#mask-8)"><g transform="translate(-3.000000, -5.000000)"><rect width="40" height="40" x="0" y="0"/></g></g></g><rect id="transparent-rectangle" width="16" height="16" x="0" y="0" transform="translate(8.000000, 8.000000) rotate(-90.000000) translate(-8.000000, -8.000000)"/></g></g></g></g><path id="Path-5" stroke="#CACACA" d="M52,102.5 L268,102.5"/><path id="Path-5-Copy-2" stroke="#CACACA" d="M52,160.5 L268,160.5"/><path id="Path-5-Copy" stroke="#CACACA" d="M52,131.5 L268,131.5"/><path id="Path-5-Copy-3" stroke="#CACACA" d="M52,189.5 L268,189.5"/><path id="Path-5-Copy-4" stroke="#CACACA" d="M52,219 L268,219"/></g></svg>