<svg xmlns="http://www.w3.org/2000/svg" xmlns:xlink="http://www.w3.org/1999/xlink" width="320" height="320" version="1.1" viewBox="0 0 320 320"><title>Artboard</title><desc>Created with Sketch.</desc><g id="Artboard" fill="none" fill-rule="evenodd" stroke="none" stroke-width="1"><g id="Slider" transform="translate(34.000000, 144.000000)"><path id="Combined-Shape-Copy-3" fill="#CACACA" d="M171.38806,18 L8.6119403,18 C8.273975,18 8,17.5522847 8,17 C8,16.4477153 8.273975,16 8.6119403,16 L171.38806,16 C171.726025,16 172,16.4477153 172,17 C172,17.5522847 171.726025,18 171.38806,18 Z" transform="translate(90.000000, 17.000000) scale(1, -1) translate(-90.000000, -17.000000)"/><path id="Combined-Shape-Copy-4" fill="#3D3D3D" d="M1,18 C0.44771525,18 0,17.5522847 0,17 C0,16.4477153 0.44771525,16 1,16 L39,16 L39,18 L1,18 Z"/><circle id="Oval-Copy-61" cx="39" cy="17" r="7" fill="#3D3D3D"/><rect id="Rectangle-Copy-16" width="64" height="32" x="188" y="0" fill="#F3F3F3"/><rect id="Rectangle-Copy-15" width="24" height="12" x="208" y="10" fill="#D8D8D8"/><path id="Path-3-Copy" stroke="#8C8C8C" d="M188,32 L252,32"/></g><rect id="Rectangle" width="2" height="4" x="124" y="155" fill="#CACACA"/></g></svg>