<svg xmlns="http://www.w3.org/2000/svg" xmlns:xlink="http://www.w3.org/1999/xlink" width="320" height="320" version="1.1" viewBox="0 0 320 320"><title>Artboard</title><desc>Created with Sketch.</desc><defs><path id="path-1" d="M9.86245647,3.65461585 L6.35803031,0.150189692 C6.26878951,0.0513025245 6.14074103,-0.00357539239 6.0075877,-2.16772672e-15 L1.00126462,-2.16772672e-15 C0.448281438,-2.05656889e-15 0,0.448281438 0,1.00126462 L0,13.01644 C0,13.5694232 0.448281438,14.0177046 1.00126462,14.0177046 L9.01138155,14.0177046 C9.56436473,14.0177046 10.0126462,13.5694232 10.0126462,13.01644 L10.0126462,4.00505847 C10.0162216,3.87190513 9.96134364,3.74385666 9.86245647,3.65461585 Z M6.0075877,1.20151754 L8.81112863,4.00505847 L6.0075877,4.00505847 L6.0075877,1.20151754 Z M9.01138155,13.01644 L1.00126462,13.01644 L1.00126462,1.00126462 L5.00632308,1.00126462 L5.00632308,4.00505847 C5.00632308,4.55804164 5.45460452,5.00632308 6.0075877,5.00632308 L9.01138155,5.00632308 L9.01138155,13.01644 Z M2.50316154,10.0126462 L7.50948462,10.0126462 L7.50948462,11.0139108 L2.50316154,11.0139108 L2.50316154,10.0126462 Z M2.50316154,7.00885232 L7.50948462,7.00885232 L7.50948462,8.01011693 L2.50316154,8.01011693 L2.50316154,7.00885232 Z"/><path id="path-3" d="M9.86245647,3.65461585 L6.35803031,0.150189692 C6.26878951,0.0513025245 6.14074103,-0.00357539239 6.0075877,-2.16772672e-15 L1.00126462,-2.16772672e-15 C0.448281438,-2.05656889e-15 0,0.448281438 0,1.00126462 L0,13.01644 C0,13.5694232 0.448281438,14.0177046 1.00126462,14.0177046 L9.01138155,14.0177046 C9.56436473,14.0177046 10.0126462,13.5694232 10.0126462,13.01644 L10.0126462,4.00505847 C10.0162216,3.87190513 9.96134364,3.74385666 9.86245647,3.65461585 Z M6.0075877,1.20151754 L8.81112863,4.00505847 L6.0075877,4.00505847 L6.0075877,1.20151754 Z M9.01138155,13.01644 L1.00126462,13.01644 L1.00126462,1.00126462 L5.00632308,1.00126462 L5.00632308,4.00505847 C5.00632308,4.55804164 5.45460452,5.00632308 6.0075877,5.00632308 L9.01138155,5.00632308 L9.01138155,13.01644 Z M2.50316154,10.0126462 L7.50948462,10.0126462 L7.50948462,11.0139108 L2.50316154,11.0139108 L2.50316154,10.0126462 Z M2.50316154,7.00885232 L7.50948462,7.00885232 L7.50948462,8.01011693 L2.50316154,8.01011693 L2.50316154,7.00885232 Z"/><path id="path-5" d="M9.86245647,3.65461585 L6.35803031,0.150189692 C6.26878951,0.0513025245 6.14074103,-0.00357539239 6.0075877,-2.16772672e-15 L1.00126462,-2.16772672e-15 C0.448281438,-2.05656889e-15 0,0.448281438 0,1.00126462 L0,13.01644 C0,13.5694232 0.448281438,14.0177046 1.00126462,14.0177046 L9.01138155,14.0177046 C9.56436473,14.0177046 10.0126462,13.5694232 10.0126462,13.01644 L10.0126462,4.00505847 C10.0162216,3.87190513 9.96134364,3.74385666 9.86245647,3.65461585 Z M6.0075877,1.20151754 L8.81112863,4.00505847 L6.0075877,4.00505847 L6.0075877,1.20151754 Z M9.01138155,13.01644 L1.00126462,13.01644 L1.00126462,1.00126462 L5.00632308,1.00126462 L5.00632308,4.00505847 C5.00632308,4.55804164 5.45460452,5.00632308 6.0075877,5.00632308 L9.01138155,5.00632308 L9.01138155,13.01644 Z M2.50316154,10.0126462 L7.50948462,10.0126462 L7.50948462,11.0139108 L2.50316154,11.0139108 L2.50316154,10.0126462 Z M2.50316154,7.00885232 L7.50948462,7.00885232 L7.50948462,8.01011693 L2.50316154,8.01011693 L2.50316154,7.00885232 Z"/><path id="path-7" d="M9.86245647,3.65461585 L6.35803031,0.150189692 C6.26878951,0.0513025245 6.14074103,-0.00357539239 6.0075877,-2.16772672e-15 L1.00126462,-2.16772672e-15 C0.448281438,-2.05656889e-15 0,0.448281438 0,1.00126462 L0,13.01644 C0,13.5694232 0.448281438,14.0177046 1.00126462,14.0177046 L9.01138155,14.0177046 C9.56436473,14.0177046 10.0126462,13.5694232 10.0126462,13.01644 L10.0126462,4.00505847 C10.0162216,3.87190513 9.96134364,3.74385666 9.86245647,3.65461585 Z M6.0075877,1.20151754 L8.81112863,4.00505847 L6.0075877,4.00505847 L6.0075877,1.20151754 Z M9.01138155,13.01644 L1.00126462,13.01644 L1.00126462,1.00126462 L5.00632308,1.00126462 L5.00632308,4.00505847 C5.00632308,4.55804164 5.45460452,5.00632308 6.0075877,5.00632308 L9.01138155,5.00632308 L9.01138155,13.01644 Z M2.50316154,10.0126462 L7.50948462,10.0126462 L7.50948462,11.0139108 L2.50316154,11.0139108 L2.50316154,10.0126462 Z M2.50316154,7.00885232 L7.50948462,7.00885232 L7.50948462,8.01011693 L2.50316154,8.01011693 L2.50316154,7.00885232 Z"/><circle id="path-9" cx="7" cy="7" r="7"/><polygon id="path-11" points="2.5 5.25 0 2.75 .795 2 2.5 3.675 6.205 0 7 .79"/></defs><g id="Artboard" fill="none" fill-rule="evenodd" stroke="none" stroke-width="1"><g id="Structured_list" transform="translate(52.000000, 96.000000)"><path id="Rectangle-5-Copy-19" fill="#DCDCDC" stroke="#0062FF" stroke-width="2" d="M1,1 L1,31 L215,31 L215,1 L1,1 Z"/><polygon id="Rectangle-5-Copy-27" fill="#F3F3F3" points="0 64 216 64 216 96 0 96"/><polygon id="Rectangle-5-Copy-29" fill="#F3F3F3" points="0 32 216 32 216 64 0 64"/><polygon id="Rectangle-5-Copy-31" fill="#F3F3F3" points="0 96 216 96 216 128 0 128"/><path id="Rectangle-3-Copy-33" stroke="#DCDCDC" d="M112,63.5 L208,63.5 L207.5,63 L207.5,64 L208,63.5 L112,63.5 Z M112,63.5 L16,63.5 L16.5,64 L16.5,63 L16,63.5 L112,63.5 Z"/><path id="Rectangle-3-Copy-34" stroke="#DCDCDC" d="M112,95.5 L208,95.5 L207.5,95 L207.5,96 L208,95.5 L112,95.5 Z M112,95.5 L16,95.5 L16.5,96 L16.5,95 L16,95.5 L112,95.5 Z"/><g id="icon/file/document/16" transform="translate(16.000000, 8.000000)"><g id="document" fill-rule="evenodd" stroke-width="1" transform="translate(3.003794, 1.001265)"><mask id="mask-2" fill="#fff"><use xlink:href="#path-1"/></mask><use id="Mask" fill="#000" fill-rule="nonzero" xlink:href="#path-1"/><g id="color/cool-gray/100" fill="#13171A" mask="url(#mask-2)"><g transform="translate(-3.003794, -1.001265)"><rect width="40" height="40" x="0" y="0"/></g></g></g><polygon id="transparent-rectangle" points="0 0 16 0 16 16 0 16"/></g><g id="icon/file/document/16" transform="translate(16.000000, 40.000000)"><g id="document" fill-rule="evenodd" stroke-width="1" transform="translate(3.003794, 1.001265)"><mask id="mask-4" fill="#fff"><use xlink:href="#path-3"/></mask><use id="Mask" fill="#000" fill-rule="nonzero" xlink:href="#path-3"/><g id="color/gray/70" fill="#565656" mask="url(#mask-4)"><g transform="translate(-3.003794, -1.001265)"><rect width="40" height="40" x="0" y="0"/></g></g></g><polygon id="transparent-rectangle" points="0 0 16 0 16 16 0 16"/></g><g id="icon/file/document/16" transform="translate(16.000000, 72.000000)"><g id="document" fill-rule="evenodd" stroke-width="1" transform="translate(3.003794, 1.001265)"><mask id="mask-6" fill="#fff"><use xlink:href="#path-5"/></mask><use id="Mask" fill="#000" fill-rule="nonzero" xlink:href="#path-5"/><g id="color/gray/70" fill="#565656" mask="url(#mask-6)"><g transform="translate(-3.003794, -1.001265)"><rect width="40" height="40" x="0" y="0"/></g></g></g><polygon id="transparent-rectangle" points="0 0 16 0 16 16 0 16"/></g><g id="icon/file/document/16" transform="translate(16.000000, 104.000000)"><g id="document" fill-rule="evenodd" stroke-width="1" transform="translate(3.003794, 1.001265)"><mask id="mask-8" fill="#fff"><use xlink:href="#path-7"/></mask><use id="Mask" fill="#000" fill-rule="nonzero" xlink:href="#path-7"/><g id="color/gray/70" fill="#565656" mask="url(#mask-8)"><g transform="translate(-3.003794, -1.001265)"><rect width="40" height="40" x="0" y="0"/></g></g></g><polygon id="transparent-rectangle" points="0 0 16 0 16 16 0 16"/></g><g id="icon/status/checkmark/filled/20" transform="translate(191.000000, 7.000000)"><g id="Group"><g id="checkmark--filled" transform="translate(1.000000, 1.000000)"><g id="icon-2"><mask id="mask-10" fill="#fff"><use xlink:href="#path-9"/></mask><use id="Mask" fill="#000" fill-rule="nonzero" xlink:href="#path-9"/><g id="color/cool-gray/100" fill="#13171A" mask="url(#mask-10)"><g transform="translate(-1.000000, -1.000000)"><rect width="16" height="16" x="0" y="0"/></g></g></g><g id="icon-1" transform="translate(3.500000, 4.500000)"><mask id="mask-12" fill="#fff"><use xlink:href="#path-11"/></mask><use id="Mask" fill="#FFF" fill-rule="nonzero" xlink:href="#path-11"/><g id="color/white" fill="#FFF" mask="url(#mask-12)"><g transform="translate(-4.500000, -5.500000)"><rect width="16" height="16" x="0" y="0"/></g></g></g></g><rect id="transparent-rectangle" width="16" height="16" x="0" y="0"/></g></g><rect id="Rectangle-Copy-19" width="116" height="12" x="45" y="41" fill="#D8D8D8"/><rect id="Rectangle-Copy-23" width="116" height="12" x="45" y="105" fill="#D8D8D8"/><rect id="Rectangle-Copy-21" width="88" height="12" x="45" y="10" fill="#BEBEBE"/><rect id="Rectangle-Copy-20" width="96" height="12" x="45" y="74" fill="#D8D8D8"/></g></g></svg>