<svg xmlns="http://www.w3.org/2000/svg" xmlns:xlink="http://www.w3.org/1999/xlink" width="18" height="18" version="1.1" viewBox="0 0 18 18"><title>icon color</title><desc>Created with Sketch.</desc><defs><path id="path-1" d="M9.625,12.125 L9.625,6.5 L7.125,6.5 L7.125,7.75 L8.375,7.75 L8.375,12.125 L6.5,12.125 L6.5,13.375 L11.5,13.375 L11.5,12.125 L9.625,12.125 L9.625,12.125 Z M9,3.375 C8.48223305,3.375 8.0625,3.79473305 8.0625,4.3125 C8.0625,4.83026695 8.48223305,5.25 9,5.25 C9.51776695,5.25 9.9375,4.83026695 9.9375,4.3125 C9.9375,3.79473305 9.51776695,3.375 9,3.375 L9,3.375 Z M9,17.75 C4.16750844,17.75 0.25,13.8324916 0.25,9 C0.25,4.16750844 4.16750844,0.25 9,0.25 C13.8324916,0.25 17.75,4.16750844 17.75,9 C17.7445923,13.8302498 13.8302498,17.7445923 9,17.75 Z M9,1.5 C4.85786438,1.5 1.5,4.85786438 1.5,9 C1.5,13.1421356 4.85786438,16.5 9,16.5 C13.1421356,16.5 16.5,13.1421356 16.5,9 C16.4953845,4.85977769 13.1402223,1.50461552 9,1.5 Z"/></defs><g id="Page-1" fill="none" fill-rule="evenodd" stroke="none" stroke-width="1"><g id="Artboard" transform="translate(-367.000000, -124.000000)"><g id="icon/navigation/add/16" transform="translate(366.000000, 123.000000)"><g id="icon/status/info/20" transform="translate(1.000000, 1.000000)"><mask id="mask-2" fill="#fff"><use xlink:href="#path-1"/></mask><use id="icon-color" fill="#565656" xlink:href="#path-1"/></g></g></g></g></svg>